<svg width="93" height="92" viewBox="0 0 93 92" fill="none" xmlns="http://www.w3.org/2000/svg">
<path d="M41.5543 63.5604H30.1765C28.6883 63.5604 27.4824 62.1378 27.4824 60.383V55.4043" stroke="#725427" stroke-width="3" stroke-miterlimit="10" stroke-linecap="round"/>
<path d="M65.5058 55.4062V60.385C65.5058 62.1397 64.2998 63.5624 62.8115 63.5624" stroke="#725427" stroke-width="3" stroke-miterlimit="10" stroke-linecap="round"/>
<path d="M61.3483 71.1411L59.5348 83.8224C59.2033 85.8973 57.6691 87.3975 55.8802 87.3975H36.9574C35.1685 87.3975 33.6313 85.8942 33.3028 83.8193L30.1885 63.5566H40.4185" stroke="#725427" stroke-width="3" stroke-miterlimit="10" stroke-linecap="round"/>
<path d="M56.2382 59.1922V63.1584M89.9909 41.2246C89.8682 48.592 83.5718 54.6112 76.2935 54.6112L63.2006 54.6079V61.2576C63.2006 63.205 61.6418 64.7828 59.7179 64.7828C57.794 64.7828 56.2352 63.205 56.2352 61.2576V59.2514V69.5659C56.2352 71.5911 54.6119 73.2339 52.6115 73.2339C50.6108 73.2339 48.9875 71.5911 48.9875 69.5659V54.6079H16.6895C9.1872 54.6079 2.90002 48.3933 2.9982 40.7993C3.09027 33.8171 8.37408 28.1055 15.1185 27.4315C15.6769 27.3756 16.0482 26.8165 15.9009 26.2699C15.4437 24.5586 15.3056 22.7106 15.5665 20.8004C16.444 14.4334 21.7217 9.50745 28.061 9.12231C31.286 8.92662 34.2869 9.88324 36.6956 11.6225C37.0943 11.9114 37.6406 11.8431 37.9475 11.461C42.188 6.18413 48.7238 2.87326 56.0174 3.07515C67.5515 3.39506 77.0606 12.6754 77.8184 24.3287C77.8676 25.0959 77.8769 25.8475 77.8553 26.5898C77.84 27.0588 78.1775 27.4626 78.6347 27.534C85.1459 28.5652 90.1076 34.3234 89.9909 41.2246Z" stroke="url(#paint0_linear_569_4357)" stroke-width="3" stroke-miterlimit="10" stroke-linecap="round"/>
<path d="M30.3993 16.3281C26.7112 16.5114 23.876 19.6794 24.057 23.4126" stroke="url(#paint1_linear_569_4357)" stroke-width="2.5" stroke-miterlimit="10" stroke-linecap="round"/>
<defs>
<linearGradient id="paint0_linear_569_4357" x1="26.9119" y1="16.3311" x2="25.5344" y2="47.7611" gradientUnits="userSpaceOnUse">
<stop stop-color="#5570B2"/>
<stop offset="1" stop-color="#4B438C"/>
</linearGradient>
<linearGradient id="paint1_linear_569_4357" x1="27.2241" y1="16.3281" x2="27.2241" y2="23.4126" gradientUnits="userSpaceOnUse">
<stop stop-color="#5671B3"/>
<stop offset="1" stop-color="#5364A8"/>
</linearGradient>
</defs>
</svg>
