<svg width="1459" height="815" viewBox="0 0 1459 815" fill="none" xmlns="http://www.w3.org/2000/svg">
<rect width="1459" height="815" fill="white"/>
<path fill-rule="evenodd" clip-rule="evenodd" d="M1095.9 548.396L1086.46 533.247C1083.25 528.08 1077.71 525 1071.64 525H1070.48C1060.84 525 1053 532.874 1053 542.55C1053 544.618 1053.36 546.642 1054.06 548.577C1054.76 550.5 1055.79 552.29 1057.12 553.865L1071.31 570.786C1073.72 569.576 1076.36 568.76 1079.14 568.421L1062.85 549.007C1062.09 548.109 1061.51 547.097 1061.11 545.997C1060.71 544.884 1060.5 543.727 1060.5 542.55C1060.5 537.023 1064.98 532.526 1070.48 532.526H1071.64C1075.11 532.526 1078.27 534.291 1080.11 537.244L1091.18 555.027C1092.43 552.623 1094.01 550.39 1095.9 548.396Z" fill="#5C5BA8"/>
<mask id="mask0_568_4300" style="mask-type:luminance" maskUnits="userSpaceOnUse" x="1057" y="491" width="239" height="121">
<path d="M1057.9 491H1295.9V611.214H1057.9V491Z" fill="white"/>
</mask>
<g mask="url(#mask0_568_4300)">
<path d="M1174.31 589.249C1174.31 577.131 1164 567.259 1151.31 567.259C1150.48 567.259 1149.63 567.303 1148.77 567.398L1145.92 567.714L1146.12 564.824C1146.16 564.128 1146.19 563.464 1146.19 562.787C1146.19 546.59 1133.12 533.398 1117.07 533.398C1109.69 533.398 1102.65 536.18 1097.26 541.24C1091.88 546.255 1088.6 553.067 1088.02 560.416L1087.81 562.958L1085.31 562.629C1084.25 562.49 1083.18 562.401 1082.09 562.401C1068.76 562.401 1057.9 573.355 1057.9 586.82C1057.9 600.209 1068.69 611.163 1081.96 611.232H1151.45C1164.04 611.169 1174.31 601.303 1174.31 589.249ZM1296.16 547.084C1296.16 534.966 1285.85 525.087 1273.16 525.087C1272.33 525.087 1271.48 525.138 1270.63 525.227L1267.77 525.543L1267.98 522.665C1268.02 521.969 1268.04 521.293 1268.04 520.616C1268.04 504.426 1254.97 491.227 1238.92 491.227C1231.54 491.227 1224.5 494.009 1219.11 499.081C1213.73 504.09 1210.45 510.902 1209.87 518.263L1209.66 520.806L1207.17 520.458C1206.1 520.331 1205.03 520.237 1203.95 520.237C1190.62 520.237 1179.75 531.184 1179.75 544.661C1179.75 558.05 1190.55 569.004 1203.82 569.067L1204.27 569.074H1272.94L1273.3 569.067C1285.89 569.004 1296.16 559.144 1296.16 547.084ZM1208 503.654C1200.7 498.316 1191.72 495.16 1182.01 495.16C1158.91 495.16 1139.93 513.001 1137.86 535.75C1145.76 541.961 1150.89 551.587 1150.99 562.42C1151.11 562.401 1151.23 562.401 1151.31 562.401C1166.65 562.401 1179.11 574.456 1179.11 589.249C1179.11 598.438 1174.27 606.565 1166.94 611.409H1230.38C1250.01 611.308 1265.89 595.99 1265.89 577.087C1265.89 576.435 1265.87 575.778 1265.83 575.139H1204.21L1203.76 575.126C1187.09 574.968 1173.69 561.301 1173.69 544.661C1173.69 527.94 1187.18 514.178 1203.95 514.178C1204.07 514.178 1204.18 514.178 1204.29 514.178C1204.97 510.472 1206.22 506.93 1208 503.654Z" fill="#5C5BA8"/>
</g>
<path d="M1105.29 575C1105.29 576.104 1104.39 577 1103.29 577C1102.18 577 1101.29 576.104 1101.29 575C1101.29 573.896 1102.18 573 1103.29 573C1104.39 573 1105.29 573.896 1105.29 575Z" fill="white" stroke="#5C5BA8" stroke-linecap="round" stroke-linejoin="round"/>
<path d="M1120.29 593C1120.29 594.104 1119.39 595 1118.29 595C1117.18 595 1116.29 594.104 1116.29 593C1116.29 591.896 1117.18 591 1118.29 591C1119.39 591 1120.29 591.896 1120.29 593Z" fill="white" stroke="#5C5BA8" stroke-linecap="round" stroke-linejoin="round"/>
<path d="M1120.29 553C1120.29 554.104 1119.39 555 1118.29 555C1117.18 555 1116.29 554.104 1116.29 553C1116.29 551.896 1117.18 551 1118.29 551C1119.39 551 1120.29 551.896 1120.29 553Z" fill="white" stroke="#5C5BA8" stroke-linecap="round" stroke-linejoin="round"/>
<path d="M1230.29 516C1230.29 514.889 1231.18 514 1232.29 514C1233.39 514 1234.29 514.889 1234.29 516C1234.29 517.104 1233.39 518 1232.29 518C1231.18 518 1230.29 517.104 1230.29 516Z" fill="white" stroke="#5C5BA8" stroke-linecap="round" stroke-linejoin="round"/>
<path d="M1217.29 535C1217.29 533.896 1218.18 533 1219.29 533C1220.39 533 1221.29 533.896 1221.29 535C1221.29 536.104 1220.39 537 1219.29 537C1218.18 537 1217.29 536.104 1217.29 535Z" fill="white" stroke="#5C5BA8" stroke-linecap="round" stroke-linejoin="round"/>
<path d="M1237.29 552C1237.29 550.896 1238.18 550 1239.29 550C1240.39 550 1241.29 550.896 1241.29 552C1241.29 553.104 1240.39 554 1239.29 554C1238.18 554 1237.29 553.104 1237.29 552Z" fill="white" stroke="#5C5BA8" stroke-linecap="round" stroke-linejoin="round"/>
<path d="M1200.29 594C1200.29 592.896 1201.18 592 1202.29 592C1203.39 592 1204.29 592.896 1204.29 594C1204.29 595.104 1203.39 596 1202.29 596C1201.18 596 1200.29 595.104 1200.29 594Z" fill="white" stroke="#5C5BA8" stroke-linecap="round" stroke-linejoin="round"/>
<path d="M1173.29 610H1197.29V625C1197.29 631.627 1191.92 637 1185.29 637V637C1178.66 637 1173.29 631.627 1173.29 625V610Z" fill="#5C5BA8"/>
<path d="M1202.29 609H1228.29V631C1228.29 638.18 1222.47 644 1215.29 644V644C1208.11 644 1202.29 638.18 1202.29 631V609Z" fill="#5C5BA8"/>
<path d="M1052.4 703.354C1057.18 703.354 1061.45 701.875 1065.27 698.344C1066.23 697.375 1066.52 696.01 1065.72 694.927C1064.92 693.844 1063.33 693.958 1062.24 694.813C1059.46 697.318 1056.15 698.63 1052.4 698.63C1044.71 698.63 1038.95 692.25 1038.95 684.734C1038.95 676.589 1045.05 670.667 1052.51 670.667C1056.15 670.667 1059.51 672.146 1062.24 674.656C1063.33 675.51 1064.92 675.62 1065.78 674.542C1066.52 673.516 1066.29 672.036 1065.27 671.125C1061.51 667.651 1057.29 666 1052.22 666C1041.74 666 1034 674.995 1034 684.734C1034 694.927 1042.31 703.354 1052.4 703.354Z" fill="#150035"/>
<path d="M1073 700.34C1073 702.048 1074.25 702.902 1075.51 702.902C1076.7 702.902 1077.9 701.991 1077.9 700.34V668.673C1077.9 667.251 1076.76 666.168 1075.39 666.168C1074.08 666.168 1073 667.251 1073 668.673V700.34Z" fill="#150035"/>
<path d="M1097.6 703.302C1105.06 703.302 1111.15 697.151 1111.15 689.688C1111.15 682.115 1105.06 676.078 1097.6 676.078C1090.14 676.078 1083.99 682.115 1083.99 689.688C1083.99 697.151 1090.14 703.302 1097.6 703.302ZM1097.6 698.573C1092.65 698.573 1088.66 694.531 1088.66 689.688C1088.66 684.734 1092.65 680.75 1097.6 680.75C1102.55 680.75 1106.49 684.734 1106.49 689.688C1106.49 694.531 1102.55 698.573 1097.6 698.573Z" fill="#150035"/>
<path d="M1139.68 676.363C1138.32 676.363 1137.12 677.441 1137.12 678.811V690.03C1137.18 694.811 1134.27 698.285 1129.66 698.285C1125.1 698.285 1121.68 694.868 1121.68 690.145V678.811C1121.68 677.441 1120.55 676.363 1119.18 676.363C1117.87 676.363 1116.79 677.441 1116.79 678.811V690.145C1116.79 697.374 1122.43 703.301 1128.86 703.301C1133.3 703.301 1136.27 701.363 1138.2 698.118V700.509C1138.2 702.275 1139.23 702.9 1140.14 702.9C1141.16 702.9 1142.08 701.931 1142.08 700.733V678.811C1142.08 677.441 1141.05 676.363 1139.68 676.363Z" fill="#150035"/>
<path d="M1172.65 666.168C1171.23 666.168 1170.2 667.309 1170.2 668.73V680.121C1168.09 677.673 1165.08 676.079 1161.54 676.079C1154.03 676.079 1147.99 682.116 1147.99 689.632C1147.99 697.095 1154.03 703.303 1161.03 703.303C1165.53 703.303 1169.12 701.194 1171.28 697.72V700.397C1171.28 702.277 1172.3 702.902 1173.22 702.902C1174.18 702.902 1175.1 701.934 1175.1 700.626V668.73C1175.1 667.309 1174.02 666.168 1172.65 666.168ZM1161.54 698.574C1156.59 698.574 1152.66 694.533 1152.66 689.632C1152.66 684.678 1156.59 680.751 1161.54 680.751C1166.5 680.751 1170.49 684.678 1170.49 689.632C1170.49 694.533 1166.5 698.574 1161.54 698.574Z" fill="#150035"/>
<path d="M1192.97 703.354C1200.15 703.354 1205.5 699.026 1205.5 692.536C1205.5 686.557 1200.15 683.88 1193.48 681.318C1190.97 680.349 1187.16 678.927 1187.16 675.224C1187.16 671.865 1190.01 670.667 1192.74 670.667C1195.59 670.667 1198.27 671.464 1199.86 673.516C1201.06 674.995 1202.65 674.542 1203.33 673.854C1203.9 673.286 1204.36 672.203 1203.79 671.292C1201.68 667.818 1197.47 666 1193.03 666C1187.16 666 1182.32 669.188 1182.32 675.339C1182.32 681.49 1187.44 684.109 1192.57 686.099C1197.24 687.922 1200.54 689.349 1200.54 692.536C1200.54 696.865 1197.41 698.688 1193.48 698.688C1189.5 698.688 1186.59 697.036 1185.45 694.927C1184.71 693.62 1183.8 693.563 1183.17 693.563C1181.35 693.563 1180.44 695.443 1181.35 697.151C1183.06 700.396 1187.1 703.354 1192.97 703.354Z" fill="#150035"/>
<path d="M1224 676.078C1216.14 676.078 1210.56 682.115 1210.56 689.63C1210.56 697.151 1216.14 703.302 1223.89 703.302C1227.98 703.302 1231.12 701.932 1233.28 699.714C1234.36 698.573 1234.31 697.094 1233.68 696.297C1232.66 694.984 1231.01 695.5 1230.04 696.354C1228.39 697.833 1226.51 698.573 1224.06 698.573C1219.96 698.573 1216.6 695.724 1215.69 691.797H1234.31C1235.79 691.797 1236.47 690.542 1236.47 688.776C1236.47 682 1231.35 676.078 1224 676.078ZM1215.74 687.297C1216.77 683.536 1220.07 680.75 1224.17 680.75C1228.33 680.75 1231.92 683.708 1232.09 687.297H1215.74Z" fill="#150035"/>
<path d="M1256.68 676.25C1252.07 676.25 1248.43 678.411 1246.2 682V678.87C1246.2 677.047 1245.18 676.365 1244.27 676.365C1243.3 676.365 1242.39 677.385 1242.39 678.641V700.625C1242.39 701.875 1243.02 702.901 1244.27 702.901C1244.38 702.901 1244.49 702.901 1244.61 702.901H1244.9C1246.2 702.901 1247.29 701.818 1247.29 700.453V690.771C1247.29 685.417 1251.27 681.146 1256.68 681.146C1258.39 681.146 1259.24 679.896 1259.24 678.641C1259.24 677.443 1258.51 676.25 1256.68 676.25Z" fill="#150035"/>
<path d="M1273.14 702.9C1274.39 702.9 1275.53 702.16 1276.16 700.681L1285.56 679.895C1286.3 678.238 1285.27 676.421 1283.45 676.363C1282.37 676.363 1281.46 676.931 1281.17 677.842L1273.14 696.462L1265.23 677.842C1264.83 676.874 1263.86 676.363 1262.89 676.363C1261.01 676.421 1260.1 678.467 1260.73 679.837L1270.18 700.681C1270.81 702.16 1271.89 702.9 1273.14 702.9Z" fill="#150035"/>
<path d="M1301.95 676.078C1294.09 676.078 1288.52 682.115 1288.52 689.63C1288.52 697.151 1294.09 703.302 1301.84 703.302C1305.94 703.302 1309.07 701.932 1311.23 699.714C1312.32 698.573 1312.26 697.094 1311.64 696.297C1310.61 694.984 1308.96 695.5 1307.99 696.354C1306.34 697.833 1304.46 698.573 1302.01 698.573C1297.91 698.573 1294.55 695.724 1293.64 691.797H1312.26C1313.74 691.797 1314.43 690.542 1314.43 688.776C1314.43 682 1309.3 676.078 1301.95 676.078ZM1293.7 687.297C1294.72 683.536 1298.03 680.75 1302.13 680.75C1306.28 680.75 1309.87 683.708 1310.04 687.297H1293.7Z" fill="#150035"/>
<mask id="mask1_568_4300" style="mask-type:luminance" maskUnits="userSpaceOnUse" x="205" y="119" width="119" height="208">
<path d="M205 119.094H324V326.821H205V119.094Z" fill="white"/>
</mask>
<g mask="url(#mask1_568_4300)">
<path d="M319.811 192.27C321.005 188.125 321.716 183.898 321.937 179.598C322.166 175.29 321.896 171.014 321.144 166.771C320.383 162.528 319.157 158.424 317.465 154.459C315.764 150.494 313.647 146.774 311.096 143.3C288.295 111.792 241.524 111.8 218.723 143.3C216.173 146.774 214.055 150.494 212.355 154.459C210.662 158.424 209.436 162.528 208.684 166.771C207.924 171.014 207.662 175.29 207.883 179.598C208.112 183.898 208.815 188.125 210.008 192.27C209.616 192.646 209.248 193.055 208.905 193.488C208.553 193.913 208.243 194.363 207.948 194.829C207.662 195.295 207.401 195.777 207.172 196.284C206.943 196.783 206.738 197.289 206.575 197.813C206.411 198.336 206.272 198.875 206.174 199.415C206.068 199.955 206.003 200.502 205.97 201.05C205.937 201.598 205.937 202.146 205.97 202.693C206.003 203.241 206.068 203.789 206.166 204.328C206.264 204.868 206.403 205.399 206.567 205.931C206.73 206.454 206.935 206.961 207.163 207.468C207.392 207.966 207.646 208.449 207.94 208.915C208.226 209.389 208.545 209.83 208.888 210.264C209.232 210.697 209.6 211.098 209.992 211.482C210.385 211.866 210.801 212.226 211.243 212.561C211.676 212.888 212.134 213.199 212.616 213.468C213.091 213.746 213.581 213.992 214.088 214.212C213.393 215.635 213.041 217.139 213.05 218.725V224.636C213.05 225.748 213.221 226.835 213.573 227.89C213.924 228.944 214.439 229.925 215.102 230.816C215.772 231.708 216.557 232.468 217.473 233.106C218.388 233.743 219.377 234.226 220.44 234.544L235.63 315.104C235.924 316.682 236.48 318.162 237.298 319.543C238.115 320.925 239.137 322.127 240.372 323.157C241.606 324.179 242.98 324.963 244.492 325.511C246.004 326.051 247.558 326.329 249.16 326.329H280.66C282.27 326.329 283.823 326.051 285.336 325.511C286.84 324.963 288.214 324.179 289.456 323.157C290.691 322.127 291.713 320.925 292.53 319.543C293.348 318.162 293.904 316.682 294.198 315.104L306.935 247.535C307.017 247.085 307.017 246.636 306.919 246.186C306.829 245.745 306.649 245.328 306.396 244.952C306.134 244.575 305.815 244.265 305.431 244.011C305.055 243.766 304.638 243.594 304.188 243.513C303.739 243.431 303.289 243.431 302.847 243.529C302.398 243.619 301.989 243.791 301.605 244.052C301.229 244.306 300.918 244.633 300.665 245.009C300.419 245.393 300.248 245.81 300.166 246.26L287.429 313.829C287.282 314.613 287.004 315.357 286.595 316.052C286.186 316.739 285.671 317.344 285.058 317.851C284.437 318.366 283.75 318.758 282.998 319.028C282.246 319.306 281.461 319.437 280.66 319.437H249.16C248.359 319.437 247.582 319.306 246.83 319.028C246.07 318.758 245.383 318.366 244.77 317.851C244.149 317.344 243.634 316.739 243.233 316.052C242.824 315.357 242.546 314.613 242.391 313.829L236.971 285.068H247.182L249.536 297.552C249.626 298.001 249.79 298.418 250.043 298.802C250.288 299.178 250.599 299.505 250.983 299.759C251.359 300.021 251.768 300.192 252.218 300.29C252.659 300.38 253.109 300.388 253.558 300.298C254.008 300.217 254.425 300.045 254.809 299.8C255.185 299.546 255.504 299.236 255.766 298.86C256.027 298.484 256.199 298.067 256.289 297.625C256.387 297.176 256.387 296.726 256.305 296.276L254.196 285.068H259.355C259.813 285.068 260.254 284.986 260.679 284.806C261.096 284.635 261.472 284.389 261.791 284.062C262.118 283.743 262.363 283.367 262.543 282.942C262.715 282.525 262.805 282.084 262.805 281.626C262.805 281.168 262.715 280.735 262.543 280.31C262.363 279.885 262.118 279.517 261.791 279.19C261.472 278.871 261.096 278.618 260.679 278.446C260.254 278.274 259.813 278.184 259.355 278.184H252.896L250.345 264.654H262.895C263.352 264.654 263.794 264.572 264.219 264.392C264.636 264.221 265.012 263.976 265.331 263.649C265.658 263.33 265.903 262.954 266.083 262.529C266.255 262.112 266.345 261.67 266.345 261.212C266.345 260.754 266.255 260.321 266.083 259.896C265.903 259.471 265.658 259.103 265.331 258.776C265.012 258.457 264.636 258.204 264.219 258.032C263.794 257.86 263.352 257.77 262.895 257.77H249.046L247.051 247.167C246.969 246.717 246.797 246.3 246.552 245.924C246.299 245.54 245.988 245.221 245.604 244.96C245.228 244.706 244.819 244.526 244.369 244.437C243.928 244.338 243.478 244.338 243.029 244.42C242.579 244.51 242.162 244.674 241.778 244.927C241.402 245.172 241.083 245.483 240.821 245.867C240.568 246.243 240.388 246.652 240.298 247.102C240.2 247.543 240.2 247.993 240.282 248.442L242.039 257.77H231.828L227.528 234.969H252.921C253.379 234.969 253.82 234.88 254.237 234.708C254.662 234.528 255.038 234.283 255.357 233.956C255.684 233.637 255.929 233.261 256.101 232.844C256.281 232.419 256.363 231.977 256.363 231.528C256.363 231.07 256.281 230.628 256.101 230.203C255.929 229.786 255.684 229.41 255.357 229.091C255.038 228.764 254.662 228.519 254.237 228.339C253.82 228.168 253.379 228.078 252.921 228.078H223.375C222.917 228.078 222.484 227.996 222.059 227.816C221.642 227.644 221.266 227.391 220.947 227.072C220.62 226.745 220.375 226.377 220.195 225.952C220.023 225.535 219.933 225.094 219.933 224.636V218.717C219.933 218.267 220.023 217.826 220.195 217.401C220.375 216.984 220.62 216.608 220.947 216.289C221.266 215.962 221.642 215.717 222.059 215.537C222.484 215.365 222.917 215.275 223.375 215.275H263.254V244.813C263.254 245.557 263.328 246.292 263.475 247.02C263.614 247.748 263.835 248.459 264.121 249.145C264.407 249.832 264.75 250.486 265.167 251.108C265.584 251.729 266.05 252.301 266.582 252.824C267.105 253.348 267.677 253.822 268.298 254.231C268.92 254.647 269.574 254.999 270.261 255.285C270.947 255.563 271.659 255.784 272.386 255.923C273.122 256.07 273.858 256.144 274.602 256.144C275.346 256.144 276.081 256.07 276.809 255.923C277.545 255.784 278.256 255.563 278.943 255.285C279.629 254.999 280.284 254.647 280.905 254.231C281.518 253.822 282.09 253.348 282.622 252.824C283.145 252.301 283.619 251.729 284.028 251.108C284.445 250.486 284.796 249.832 285.082 249.145C285.369 248.459 285.581 247.748 285.728 247.02C285.875 246.292 285.949 245.557 285.949 244.813V237.079C286.922 237.479 287.936 237.733 288.982 237.839C290.029 237.953 291.067 237.913 292.105 237.725C293.143 237.537 294.133 237.21 295.073 236.744C296.013 236.278 296.871 235.681 297.648 234.969H306.445C307.123 234.969 307.793 234.904 308.464 234.765C309.126 234.634 309.772 234.438 310.401 234.176C311.023 233.915 311.62 233.604 312.184 233.22C312.748 232.844 313.271 232.419 313.745 231.936C314.227 231.462 314.661 230.939 315.037 230.375C315.413 229.811 315.732 229.214 315.985 228.593C316.247 227.963 316.443 227.317 316.582 226.655C316.713 225.985 316.778 225.314 316.778 224.636V218.717C316.778 217.139 316.435 215.635 315.74 214.212C316.247 213.992 316.737 213.746 317.211 213.468C317.686 213.199 318.143 212.888 318.585 212.561C319.018 212.226 319.435 211.866 319.828 211.482C320.228 211.098 320.596 210.697 320.939 210.264C321.283 209.83 321.602 209.389 321.888 208.915C322.174 208.449 322.435 207.966 322.664 207.468C322.893 206.961 323.09 206.454 323.261 205.931C323.425 205.399 323.556 204.868 323.654 204.328C323.76 203.789 323.825 203.241 323.858 202.693C323.891 202.146 323.891 201.598 323.858 201.05C323.825 200.502 323.752 199.955 323.654 199.415C323.547 198.875 323.417 198.336 323.253 197.813C323.081 197.289 322.885 196.783 322.656 196.284C322.427 195.777 322.166 195.295 321.871 194.829C321.585 194.363 321.266 193.913 320.923 193.488C320.58 193.055 320.212 192.646 319.811 192.27ZM243.339 264.654L245.89 278.184H235.679L233.128 264.654H243.339ZM309.895 224.636C309.886 225.094 309.805 225.535 309.625 225.952C309.453 226.377 309.2 226.745 308.881 227.072C308.562 227.391 308.186 227.644 307.761 227.816C307.344 227.996 306.902 228.078 306.445 228.078H301.155C301.253 227.154 301.229 227.677 301.229 215.275H306.445C306.902 215.275 307.344 215.365 307.761 215.537C308.186 215.717 308.562 215.962 308.881 216.289C309.2 216.608 309.453 216.984 309.625 217.401C309.805 217.826 309.886 218.267 309.895 218.717V224.636ZM310.5 208.392H297.779C297.329 208.392 296.888 208.473 296.462 208.653C296.046 208.825 295.669 209.078 295.342 209.397C295.024 209.724 294.778 210.092 294.599 210.517C294.427 210.934 294.337 211.376 294.337 211.833V226.819C294.337 227.375 294.231 227.914 294.018 228.421C293.806 228.936 293.503 229.394 293.111 229.786C292.718 230.179 292.26 230.481 291.745 230.694C291.238 230.906 290.699 231.013 290.143 231.013C289.587 231.013 289.056 230.906 288.541 230.694C288.026 230.481 287.568 230.179 287.175 229.786C286.783 229.394 286.48 228.936 286.268 228.421C286.055 227.914 285.949 227.375 285.949 226.819V225.666C285.949 225.208 285.859 224.767 285.687 224.35C285.516 223.925 285.262 223.549 284.943 223.23C284.616 222.903 284.249 222.657 283.823 222.486C283.398 222.306 282.965 222.224 282.507 222.224C282.049 222.224 281.608 222.306 281.191 222.486C280.766 222.657 280.398 222.903 280.071 223.23C279.752 223.549 279.499 223.925 279.327 224.35C279.147 224.767 279.065 225.208 279.065 225.666V244.813C279.065 245.401 278.951 245.965 278.722 246.513C278.493 247.061 278.174 247.543 277.757 247.96C277.332 248.377 276.85 248.704 276.31 248.925C275.763 249.154 275.19 249.268 274.602 249.268C274.013 249.268 273.441 249.154 272.893 248.925C272.345 248.704 271.863 248.377 271.446 247.96C271.029 247.543 270.71 247.061 270.481 246.513C270.252 245.965 270.138 245.401 270.138 244.813V211.833C270.138 211.376 270.048 210.934 269.876 210.517C269.705 210.092 269.451 209.724 269.132 209.397C268.805 209.078 268.437 208.825 268.012 208.653C267.587 208.473 267.154 208.392 266.696 208.392H219.32C218.617 208.392 217.93 208.277 217.268 208.056C216.598 207.836 215.985 207.509 215.421 207.083C214.856 206.667 214.374 206.168 213.973 205.587C213.573 205.007 213.279 204.377 213.082 203.707C212.886 203.028 212.804 202.342 212.829 201.639C212.853 200.936 212.992 200.249 213.246 199.595C213.491 198.933 213.834 198.336 214.284 197.788C214.726 197.24 215.249 196.783 215.837 196.398C216.508 195.981 216.966 195.401 217.235 194.657C217.497 193.913 217.505 193.169 217.26 192.417C216.001 188.656 215.208 184.798 214.873 180.841C214.546 176.884 214.685 172.943 215.298 169.019C215.911 165.103 216.974 161.31 218.503 157.639C220.023 153.977 221.953 150.543 224.307 147.338C244.353 119.64 285.467 119.632 305.513 147.338C307.867 150.535 309.796 153.968 311.325 157.639C312.846 161.302 313.917 165.095 314.53 169.019C315.143 172.943 315.282 176.884 314.947 180.841C314.62 184.798 313.819 188.656 312.56 192.417C312.314 193.169 312.323 193.913 312.592 194.657C312.854 195.401 313.32 195.981 313.982 196.398C314.579 196.783 315.094 197.24 315.544 197.788C315.985 198.336 316.337 198.933 316.582 199.595C316.827 200.249 316.966 200.936 316.999 201.639C317.023 202.342 316.942 203.028 316.745 203.707C316.549 204.377 316.247 205.007 315.846 205.587C315.446 206.168 314.963 206.667 314.407 207.083C313.843 207.509 313.23 207.836 312.56 208.056C311.889 208.277 311.203 208.392 310.5 208.392Z" fill="#0A68FF"/>
</g>
<path d="M205 119.094H228.5H231.5H252H299L320 130.094L327 208.094H205V119.094Z" fill="white"/>
<path d="M148.396 391.448C153.177 391.448 157.448 389.969 161.266 386.438C162.234 385.469 162.516 384.104 161.719 383.021C160.922 381.938 159.328 382.052 158.245 382.906C155.458 385.411 152.151 386.724 148.396 386.724C140.708 386.724 134.953 380.344 134.953 372.828C134.953 364.682 141.047 358.76 148.51 358.76C152.151 358.76 155.51 360.24 158.245 362.75C159.328 363.604 160.922 363.714 161.776 362.635C162.516 361.609 162.292 360.13 161.266 359.219C157.505 355.745 153.292 354.094 148.224 354.094C137.745 354.094 130 363.089 130 372.828C130 383.021 138.313 391.448 148.396 391.448Z" fill="#2C3892"/>
<path d="M169 388.434C169 390.142 170.25 390.996 171.505 390.996C172.698 390.996 173.896 390.085 173.896 388.434V356.767C173.896 355.345 172.755 354.262 171.391 354.262C170.078 354.262 169 355.345 169 356.767V388.434Z" fill="#2C3892"/>
<path d="M193.602 391.396C201.06 391.396 207.154 385.245 207.154 377.781C207.154 370.208 201.06 364.172 193.602 364.172C186.138 364.172 179.992 370.208 179.992 377.781C179.992 385.245 186.138 391.396 193.602 391.396ZM193.602 386.667C188.648 386.667 184.659 382.625 184.659 377.781C184.659 372.828 188.648 368.844 193.602 368.844C198.555 368.844 202.487 372.828 202.487 377.781C202.487 382.625 198.555 386.667 193.602 386.667Z" fill="#2C3892"/>
<path d="M235.685 364.457C234.315 364.457 233.122 365.535 233.122 366.905V378.124C233.18 382.905 230.273 386.379 225.659 386.379C221.102 386.379 217.685 382.962 217.685 378.238V366.905C217.685 365.535 216.549 364.457 215.18 364.457C213.872 364.457 212.789 365.535 212.789 366.905V378.238C212.789 385.467 218.43 391.395 224.862 391.395C229.305 391.395 232.268 389.457 234.201 386.212V388.603C234.201 390.368 235.227 390.993 236.138 390.993C237.164 390.993 238.076 390.025 238.076 388.827V366.905C238.076 365.535 237.049 364.457 235.685 364.457Z" fill="#2C3892"/>
<path d="M268.648 354.262C267.227 354.262 266.201 355.402 266.201 356.824V368.215C264.091 365.767 261.076 364.173 257.544 364.173C250.029 364.173 243.992 370.21 243.992 377.725C243.992 385.189 250.029 391.397 257.029 391.397C261.529 391.397 265.117 389.288 267.284 385.814V388.491C267.284 390.371 268.305 390.996 269.216 390.996C270.185 390.996 271.096 390.027 271.096 388.72V356.824C271.096 355.402 270.018 354.262 268.648 354.262ZM257.544 386.668C252.591 386.668 248.659 382.626 248.659 377.725C248.659 372.772 252.591 368.845 257.544 368.845C262.497 368.845 266.487 372.772 266.487 377.725C266.487 382.626 262.497 386.668 257.544 386.668Z" fill="#2C3892"/>
<path d="M288.97 391.448C296.147 391.448 301.496 387.12 301.496 380.63C301.496 374.651 296.147 371.974 289.48 369.411C286.975 368.443 283.162 367.021 283.162 363.318C283.162 359.958 286.006 358.76 288.74 358.76C291.589 358.76 294.266 359.557 295.86 361.609C297.058 363.089 298.652 362.635 299.334 361.948C299.902 361.38 300.36 360.297 299.787 359.385C297.683 355.911 293.47 354.094 289.027 354.094C283.162 354.094 278.319 357.281 278.319 363.432C278.319 369.583 283.444 372.203 288.569 374.193C293.24 376.016 296.542 377.443 296.542 380.63C296.542 384.958 293.412 386.781 289.48 386.781C285.496 386.781 282.589 385.13 281.454 383.021C280.709 381.714 279.798 381.656 279.173 381.656C277.35 381.656 276.438 383.536 277.35 385.245C279.058 388.49 283.105 391.448 288.97 391.448Z" fill="#2C3892"/>
<path d="M320 364.172C312.141 364.172 306.562 370.208 306.562 377.724C306.562 385.245 312.141 391.396 319.885 391.396C323.984 391.396 327.12 390.026 329.281 387.807C330.365 386.667 330.307 385.188 329.682 384.391C328.656 383.078 327.005 383.594 326.036 384.448C324.385 385.927 322.505 386.667 320.057 386.667C315.958 386.667 312.599 383.818 311.688 379.891H330.307C331.786 379.891 332.474 378.635 332.474 376.87C332.474 370.094 327.349 364.172 320 364.172ZM311.745 375.391C312.766 371.63 316.073 368.844 320.172 368.844C324.328 368.844 327.917 371.802 328.089 375.391H311.745Z" fill="#2C3892"/>
<path d="M352.682 364.344C348.073 364.344 344.427 366.505 342.203 370.094V366.964C342.203 365.141 341.177 364.458 340.271 364.458C339.302 364.458 338.391 365.479 338.391 366.734V388.719C338.391 389.969 339.016 390.995 340.271 390.995C340.38 390.995 340.495 390.995 340.609 390.995H340.896C342.203 390.995 343.286 389.911 343.286 388.547V378.865C343.286 373.51 347.271 369.24 352.682 369.24C354.391 369.24 355.245 367.99 355.245 366.734C355.245 365.536 354.505 364.344 352.682 364.344Z" fill="#2C3892"/>
<path d="M369.144 390.993C370.394 390.993 371.534 390.254 372.159 388.775L381.56 367.988C382.3 366.332 381.274 364.514 379.451 364.457C378.368 364.457 377.456 365.025 377.175 365.936L369.144 384.556L361.227 365.936C360.826 364.967 359.862 364.457 358.894 364.457C357.013 364.514 356.102 366.561 356.727 367.931L366.18 388.775C366.81 390.254 367.888 390.993 369.144 390.993Z" fill="#2C3892"/>
<path d="M397.953 364.172C390.094 364.172 384.516 370.208 384.516 377.724C384.516 385.245 390.094 391.396 397.839 391.396C401.938 391.396 405.073 390.026 407.234 387.807C408.318 386.667 408.26 385.188 407.635 384.391C406.609 383.078 404.958 383.594 403.99 384.448C402.339 385.927 400.458 386.667 398.01 386.667C393.911 386.667 390.552 383.818 389.641 379.891H408.26C409.74 379.891 410.427 378.635 410.427 376.87C410.427 370.094 405.302 364.172 397.953 364.172ZM389.698 375.391C390.719 371.63 394.026 368.844 398.125 368.844C402.281 368.844 405.87 371.802 406.042 375.391H389.698Z" fill="#2C3892"/>
<mask id="mask2_568_4300" style="mask-type:luminance" maskUnits="userSpaceOnUse" x="163" y="97" width="198" height="120">
<path d="M163 97H360.328V216.092H163V97Z" fill="white"/>
</mask>
<g mask="url(#mask2_568_4300)">
<path d="M293.912 173.325C293.912 175.444 292.192 177.169 290.073 177.169C287.954 177.169 286.229 175.444 286.229 173.325V144.675C286.229 142.556 287.954 140.836 290.073 140.836C292.192 140.836 293.912 142.556 293.912 144.675V173.325ZM236.766 148.542C233.497 148.542 230.472 150.307 228.245 153.173C225.795 156.311 224.292 160.68 224.292 165.579C224.292 170.482 225.795 174.851 228.245 177.984C230.472 180.855 233.497 182.62 236.766 182.62C240.03 182.62 243.054 180.855 245.286 177.984C247.736 174.851 249.234 170.482 249.234 165.579C249.234 160.68 247.736 156.311 245.286 153.173C243.032 150.307 240.03 148.542 236.766 148.542ZM326.162 216.459H196.901C187.565 216.459 179.089 212.661 172.95 206.548C166.838 200.432 163.039 191.956 163.039 182.62C163.039 173.701 166.507 165.579 172.18 159.512C176.902 154.454 183.173 150.837 190.213 149.424L190.145 148.981C189.905 147.369 189.792 145.734 189.792 144.105C189.792 134.742 193.591 126.289 199.703 120.154C205.842 114.037 214.295 110.243 223.654 110.243C227.538 110.243 231.292 110.904 234.801 112.14C237.205 112.978 239.482 114.082 241.601 115.409C246.192 110.112 251.797 105.738 258.086 102.582C265.284 99.0057 273.362 97 281.905 97C296.647 97 309.98 102.981 319.629 112.625C329.209 122.205 335.167 135.407 335.253 149.995C341.922 151.851 347.772 155.691 352.096 160.856C357.04 166.751 360.019 174.321 360.019 182.598C360.019 191.956 356.225 200.409 350.108 206.548C343.973 212.683 335.52 216.459 326.162 216.459ZM286.206 208.753V189.045C283.204 188.361 280.515 186.813 278.396 184.717C275.481 181.805 273.647 177.762 273.647 173.307V144.675C273.647 142.556 275.372 140.836 277.491 140.836C279.61 140.836 281.33 142.556 281.33 144.675V173.325C281.33 175.643 282.281 177.762 283.802 179.288C285.323 180.809 287.442 181.76 289.76 181.76H290.29C292.608 181.76 294.727 180.809 296.253 179.288C297.774 177.762 298.725 175.643 298.725 173.325V144.675C298.725 142.556 300.445 140.836 302.564 140.836C304.683 140.836 306.426 142.556 306.426 144.675V173.325C306.426 177.762 304.615 181.805 301.681 184.739C299.563 186.858 296.869 188.379 293.867 189.068V208.776H326.162C333.379 208.776 339.912 205.842 344.657 201.115C349.384 196.393 352.317 189.837 352.317 182.62C352.317 176.218 350.022 170.346 346.201 165.8C342.316 161.187 336.888 157.923 330.685 156.859C328.679 156.505 327.307 154.676 327.506 152.666C327.529 152.25 327.552 151.896 327.552 151.607C327.552 151.521 327.552 151.122 327.552 150.348C327.552 137.743 322.431 126.334 314.173 118.058C305.942 109.799 294.51 104.701 281.905 104.701C274.575 104.701 267.666 106.422 261.531 109.491C255.152 112.67 249.633 117.306 245.395 122.934C244.114 124.636 241.71 124.967 240.03 123.708L239.944 123.64C237.671 121.829 235.086 120.376 232.283 119.402C229.612 118.474 226.701 117.967 223.654 117.967C216.437 117.967 209.904 120.905 205.154 125.628C200.432 130.35 197.498 136.906 197.498 144.123C197.498 145.449 197.584 146.708 197.761 147.921C197.937 149.18 198.227 150.393 198.58 151.607C199.173 153.64 198.028 155.781 195.995 156.397C195.665 156.487 195.357 156.551 195.026 156.551C188.226 157.035 182.154 160.105 177.785 164.764C173.416 169.423 170.745 175.711 170.745 182.643C170.745 189.86 173.679 196.393 178.406 201.138C183.128 205.865 189.684 208.799 196.901 208.799H232.614V189.815C228.553 188.778 224.976 186.26 222.219 182.729C218.755 178.292 216.613 172.248 216.613 165.601C216.613 158.959 218.755 152.911 222.219 148.474C225.881 143.769 231.025 140.858 236.788 140.858C242.525 140.858 247.668 143.769 251.353 148.474C254.821 152.911 256.963 158.959 256.963 165.601C256.963 172.248 254.821 178.292 251.353 182.729C248.465 186.437 244.643 189.022 240.342 189.95V208.776H286.206V208.753Z" fill="#0A68FF"/>
<path d="M205 134.094H228.5H231.5H252H299L320 143.24L326.173 208.883H205V134.094Z" fill="white"/>
<path d="M222.245 127.342C219.386 128.874 216.902 130.879 214.808 133.353C212.709 135.832 211.146 138.608 210.11 141.686C210.021 141.962 209.985 142.249 210.006 142.535C210.027 142.827 210.105 143.103 210.235 143.363C210.365 143.624 210.537 143.847 210.756 144.035C210.98 144.228 211.224 144.368 211.501 144.462C211.777 144.551 212.058 144.587 212.349 144.566C212.641 144.545 212.917 144.472 213.178 144.342C213.433 144.212 213.662 144.035 213.849 143.816C214.042 143.597 214.183 143.347 214.277 143.071C215.131 140.535 216.422 138.238 218.152 136.191C219.881 134.144 221.933 132.488 224.297 131.222C224.553 131.087 224.771 130.91 224.959 130.686C225.141 130.462 225.277 130.212 225.365 129.931C225.448 129.655 225.48 129.368 225.448 129.082C225.422 128.79 225.344 128.519 225.209 128.264C225.073 128.004 224.891 127.785 224.667 127.597C224.443 127.415 224.193 127.28 223.917 127.191C223.641 127.108 223.355 127.077 223.068 127.103C222.777 127.129 222.506 127.207 222.245 127.342Z" fill="#0A68FF"/>
</g>
<path d="M270.14 186.094H294.342V222.094H270.141L270.14 186.094Z" fill="white"/>
<mask id="mask3_568_4300" style="mask-type:luminance" maskUnits="userSpaceOnUse" x="1048" y="137" width="285" height="144">
<path d="M1048 137H1332.77V280.839H1048V137Z" fill="white"/>
</mask>
<g mask="url(#mask3_568_4300)">
<path d="M1187.29 254.555C1187.29 240.056 1174.95 228.243 1159.77 228.243C1158.78 228.243 1157.76 228.296 1156.73 228.41L1153.32 228.788L1153.56 225.33C1153.61 224.497 1153.64 223.703 1153.64 222.893C1153.64 203.513 1138.01 187.728 1118.8 187.728C1109.97 187.728 1101.55 191.058 1095.09 197.111C1088.66 203.112 1084.73 211.262 1084.04 220.055L1083.79 223.097L1080.8 222.704C1079.53 222.537 1078.25 222.432 1076.94 222.432C1060.99 222.432 1048 235.538 1048 251.649C1048 267.669 1060.92 280.775 1076.79 280.858H1159.94C1175 280.783 1187.29 268.978 1187.29 254.555ZM1333.09 204.104C1333.09 189.605 1320.75 177.785 1305.57 177.785C1304.58 177.785 1303.55 177.845 1302.53 177.951L1299.11 178.33L1299.36 174.886C1299.41 174.054 1299.44 173.244 1299.44 172.435C1299.44 153.062 1283.8 137.27 1264.6 137.27C1255.77 137.27 1247.34 140.599 1240.89 146.668C1234.46 152.661 1230.53 160.811 1229.83 169.62L1229.58 172.662L1226.6 172.245C1225.33 172.094 1224.04 171.981 1222.76 171.981C1206.8 171.981 1193.8 185.08 1193.8 201.205C1193.8 217.225 1206.72 230.332 1222.59 230.407L1223.14 230.415H1305.3L1305.73 230.407C1320.8 230.332 1333.09 218.534 1333.09 204.104ZM1227.6 152.139C1218.86 145.752 1208.12 141.976 1196.5 141.976C1168.86 141.976 1146.16 163.324 1143.68 190.543C1153.13 197.974 1159.26 209.492 1159.39 222.454C1159.53 222.432 1159.67 222.432 1159.77 222.432C1178.12 222.432 1193.03 236.855 1193.03 254.555C1193.03 265.55 1187.24 275.274 1178.47 281.07H1254.38C1277.86 280.949 1296.86 262.621 1296.86 240.003C1296.86 239.223 1296.84 238.436 1296.8 237.672H1223.06L1222.52 237.657C1202.58 237.468 1186.55 221.115 1186.55 201.205C1186.55 181.198 1202.68 164.731 1222.76 164.731C1222.89 164.731 1223.02 164.731 1223.16 164.731C1223.97 160.297 1225.48 156.059 1227.6 152.139Z" fill="#0A68FF"/>
</g>
<path d="M1104.69 237.508C1104.69 238.829 1103.62 239.901 1102.3 239.901C1100.98 239.901 1099.9 238.829 1099.9 237.508C1099.9 236.187 1100.98 235.115 1102.3 235.115C1103.62 235.115 1104.69 236.187 1104.69 237.508Z" fill="white"/>
<path d="M1122.3 258.447C1122.3 259.438 1121.5 260.242 1120.5 260.242C1119.51 260.242 1118.71 259.438 1118.71 258.447C1118.71 257.456 1119.51 256.652 1120.5 256.652C1121.5 256.652 1122.3 257.456 1122.3 258.447Z" fill="white"/>
<path d="M1122.63 211.184C1122.63 212.505 1121.56 213.577 1120.24 213.577C1118.92 213.577 1117.85 212.505 1117.85 211.184C1117.85 209.863 1118.92 208.791 1120.24 208.791C1121.56 208.791 1122.63 209.863 1122.63 211.184Z" fill="white"/>
<path d="M1254.25 166.911C1254.25 165.581 1255.33 164.518 1256.65 164.518C1257.97 164.518 1259.04 165.581 1259.04 166.911C1259.04 168.232 1257.97 169.304 1256.65 169.304C1255.33 169.304 1254.25 168.232 1254.25 166.911Z" fill="white"/>
<path d="M1238.7 189.647C1238.7 188.326 1239.77 187.254 1241.09 187.254C1242.41 187.254 1243.48 188.326 1243.48 189.647C1243.48 190.968 1242.41 192.04 1241.09 192.04C1239.77 192.04 1238.7 190.968 1238.7 189.647Z" fill="white"/>
<path d="M1262.63 209.987C1262.63 208.666 1263.7 207.594 1265.02 207.594C1266.35 207.594 1267.42 208.666 1267.42 209.987C1267.42 211.308 1266.35 212.38 1265.02 212.38C1263.7 212.38 1262.63 211.308 1262.63 209.987Z" fill="white"/>
<path d="M1219.22 259.644C1219.22 258.654 1220.03 257.85 1221.02 257.85C1222.01 257.85 1222.81 258.654 1222.81 259.644C1222.81 260.635 1222.01 261.439 1221.02 261.439C1220.03 261.439 1219.22 260.635 1219.22 259.644Z" fill="white"/>
<path d="M1186.05 279.385H1214.77V299.691C1214.77 306.318 1209.4 311.691 1202.77 311.691H1198.05C1191.43 311.691 1186.05 306.318 1186.05 299.691V279.385Z" fill="#0A68FF"/>
<path d="M1220.75 278.188H1251.86V307.066C1251.86 314.245 1246.04 320.066 1238.86 320.066H1233.75C1226.57 320.066 1220.75 314.245 1220.75 307.066V278.188Z" fill="#0A68FF"/>
<path d="M1066.7 391.091C1071.55 391.091 1075.89 389.588 1079.77 385.999C1080.76 385.015 1081.04 383.628 1080.24 382.527C1079.43 381.426 1077.81 381.542 1076.7 382.41C1073.87 384.956 1070.51 386.29 1066.7 386.29C1058.88 386.29 1053.03 379.806 1053.03 372.168C1053.03 363.89 1059.23 357.872 1066.81 357.872C1070.51 357.872 1073.93 359.375 1076.7 361.926C1077.81 362.794 1079.43 362.905 1080.29 361.81C1081.04 360.767 1080.82 359.264 1079.77 358.337C1075.95 354.807 1071.67 353.129 1066.52 353.129C1055.87 353.129 1048 362.27 1048 372.168C1048 382.527 1056.45 391.091 1066.7 391.091Z" fill="#2C3892"/>
<path d="M1087.64 388.027C1087.64 389.763 1088.91 390.631 1090.18 390.631C1091.4 390.631 1092.61 389.705 1092.61 388.027V355.845C1092.61 354.4 1091.46 353.299 1090.07 353.299C1088.73 353.299 1087.64 354.4 1087.64 355.845V388.027Z" fill="#2C3892"/>
<path d="M1112.64 391.034C1120.22 391.034 1126.41 384.783 1126.41 377.198C1126.41 369.502 1120.22 363.367 1112.64 363.367C1105.05 363.367 1098.8 369.502 1098.8 377.198C1098.8 384.783 1105.05 391.034 1112.64 391.034ZM1112.64 386.228C1107.6 386.228 1103.55 382.121 1103.55 377.198C1103.55 372.164 1107.6 368.115 1112.64 368.115C1117.67 368.115 1121.67 372.164 1121.67 377.198C1121.67 382.121 1117.67 386.228 1112.64 386.228Z" fill="#2C3892"/>
<path d="M1155.4 363.652C1154 363.652 1152.79 364.748 1152.79 366.14V377.541C1152.85 382.401 1149.9 385.931 1145.21 385.931C1140.58 385.931 1137.1 382.459 1137.1 377.658V366.14C1137.1 364.748 1135.95 363.652 1134.56 363.652C1133.23 363.652 1132.13 364.748 1132.13 366.14V377.658C1132.13 385.005 1137.86 391.028 1144.4 391.028C1148.91 391.028 1151.92 389.059 1153.89 385.762V388.191C1153.89 389.986 1154.93 390.621 1155.86 390.621C1156.9 390.621 1157.83 389.636 1157.83 388.419V366.14C1157.83 364.748 1156.78 363.652 1155.4 363.652Z" fill="#2C3892"/>
<path d="M1188.91 353.299C1187.47 353.299 1186.43 354.458 1186.43 355.903V367.479C1184.28 364.991 1181.22 363.372 1177.63 363.372C1169.99 363.372 1163.86 369.506 1163.86 377.144C1163.86 384.729 1169.99 391.039 1177.11 391.039C1181.68 391.039 1185.33 388.895 1187.53 385.365V388.085C1187.53 389.996 1188.56 390.631 1189.49 390.631C1190.48 390.631 1191.4 389.647 1191.4 388.318V355.903C1191.4 354.458 1190.31 353.299 1188.91 353.299ZM1177.63 386.233C1172.6 386.233 1168.6 382.125 1168.6 377.144C1168.6 372.111 1172.6 368.12 1177.63 368.12C1182.66 368.12 1186.72 372.111 1186.72 377.144C1186.72 382.125 1182.66 386.233 1177.63 386.233Z" fill="#2C3892"/>
<path d="M1209.56 391.091C1216.86 391.091 1222.29 386.693 1222.29 380.097C1222.29 374.021 1216.86 371.3 1210.08 368.696C1207.54 367.711 1203.66 366.266 1203.66 362.503C1203.66 359.089 1206.55 357.872 1209.33 357.872C1212.23 357.872 1214.95 358.681 1216.57 360.767C1217.78 362.27 1219.4 361.81 1220.1 361.111C1220.67 360.534 1221.14 359.433 1220.56 358.507C1218.42 354.976 1214.14 353.129 1209.62 353.129C1203.66 353.129 1198.74 356.368 1198.74 362.619C1198.74 368.871 1203.95 371.533 1209.16 373.555C1213.9 375.408 1217.26 376.858 1217.26 380.097C1217.26 384.496 1214.08 386.348 1210.08 386.348C1206.03 386.348 1203.08 384.671 1201.92 382.527C1201.17 381.198 1200.24 381.14 1199.61 381.14C1197.75 381.14 1196.83 383.051 1197.75 384.787C1199.49 388.085 1203.6 391.091 1209.56 391.091Z" fill="#2C3892"/>
<path d="M1241.09 363.367C1233.11 363.367 1227.44 369.502 1227.44 377.14C1227.44 384.783 1233.11 391.034 1240.98 391.034C1245.14 391.034 1248.33 389.642 1250.53 387.387C1251.63 386.228 1251.57 384.725 1250.93 383.915C1249.89 382.581 1248.21 383.105 1247.23 383.973C1245.55 385.477 1243.64 386.228 1241.15 386.228C1236.99 386.228 1233.57 383.333 1232.65 379.342H1251.57C1253.07 379.342 1253.77 378.066 1253.77 376.272C1253.77 369.385 1248.56 363.367 1241.09 363.367ZM1232.7 374.769C1233.74 370.947 1237.1 368.115 1241.27 368.115C1245.49 368.115 1249.14 371.122 1249.31 374.769H1232.7Z" fill="#2C3892"/>
<path d="M1274.32 363.537C1269.64 363.537 1265.93 365.734 1263.67 369.381V366.2C1263.67 364.347 1262.63 363.654 1261.71 363.654C1260.72 363.654 1259.8 364.691 1259.8 365.967V388.309C1259.8 389.579 1260.43 390.622 1261.71 390.622C1261.82 390.622 1261.94 390.622 1262.05 390.622H1262.34C1263.67 390.622 1264.77 389.521 1264.77 388.134V378.294C1264.77 372.853 1268.82 368.513 1274.32 368.513C1276.06 368.513 1276.93 367.242 1276.93 365.967C1276.93 364.749 1276.17 363.537 1274.32 363.537Z" fill="#2C3892"/>
<path d="M1291.05 390.621C1292.32 390.621 1293.48 389.869 1294.12 388.366L1303.67 367.241C1304.42 365.558 1303.38 363.711 1301.53 363.652C1300.43 363.652 1299.5 364.229 1299.22 365.156L1291.05 384.078L1283.01 365.156C1282.6 364.171 1281.62 363.652 1280.64 363.652C1278.73 363.711 1277.8 365.791 1278.43 367.183L1288.04 388.366C1288.68 389.869 1289.78 390.621 1291.05 390.621Z" fill="#2C3892"/>
<path d="M1320.32 363.367C1312.34 363.367 1306.67 369.502 1306.67 377.14C1306.67 384.783 1312.34 391.034 1320.21 391.034C1324.37 391.034 1327.56 389.642 1329.76 387.387C1330.86 386.228 1330.8 384.725 1330.16 383.915C1329.12 382.581 1327.44 383.105 1326.46 383.973C1324.78 385.477 1322.87 386.228 1320.38 386.228C1316.22 386.228 1312.8 383.333 1311.87 379.342H1330.8C1332.3 379.342 1333 378.066 1333 376.272C1333 369.385 1327.79 363.367 1320.32 363.367ZM1311.93 374.769C1312.97 370.947 1316.33 368.115 1320.5 368.115C1324.72 368.115 1328.37 371.122 1328.54 374.769H1311.93Z" fill="#2C3892"/>
<g clip-path="url(#clip0_568_4300)">
<path d="M779.461 499.346C781.078 498.427 782.605 497.409 784.039 496.303C784.703 512.052 777.07 527.607 762.946 536.457H715.039C708.908 532.616 703.615 527.242 699.788 520.497C687.511 498.831 695.106 471.301 716.757 459.012C718.683 457.919 720.655 456.983 722.658 456.201C720.341 465.518 721.451 475.716 726.565 484.732C730.43 491.554 736.06 496.76 742.553 500.097C753.791 505.879 767.639 506.057 779.46 499.347L779.461 499.346Z" fill="#0A68FF" stroke="black" stroke-width="3.77899"/>
<path d="M800.327 463.371C809.034 466.118 816.837 471.864 822.05 480.222C833.595 498.739 828.045 523.079 809.681 534.769L809.387 534.953C808.621 535.429 807.845 535.877 807.061 536.298H772.937C786.309 525.413 792.566 508.402 790.171 491.951C797.41 484.164 800.999 473.757 800.327 463.371Z" fill="#0A68FF" stroke="black" stroke-width="3.77899"/>
<path d="M744.448 436.41C737.479 440.492 732.554 446.751 730.043 453.835C726.961 462.539 727.526 472.476 732.436 481.135L732.436 481.135C735.722 486.933 740.495 491.35 746.01 494.179L746.011 494.18C755.56 499.092 767.314 499.24 777.35 493.544L777.352 493.543C779.691 492.218 781.806 490.645 783.682 488.881L744.448 436.41ZM744.448 436.41L744.84 436.188C760.664 427.204 780.775 432.76 789.754 448.6L789.754 448.6C792.108 452.751 793.461 457.193 793.893 461.651L793.893 461.652C794.872 471.702 791.173 481.838 783.683 488.881L744.448 436.41Z" fill="#0A68FF" stroke="black" stroke-width="3.77899"/>
<path d="M719.778 542.763H803.608L770.864 632.393H770.86L770.407 633.635C767.44 641.765 755.947 641.767 752.975 633.635L719.778 542.763Z" fill="#FBA702" stroke="black" stroke-width="3.77899"/>
<path d="M778.937 439.264C773.971 436.982 768.364 435.92 762.542 436.436C744.608 438.022 731.336 453.933 732.913 471.991C733.128 474.467 733.612 476.853 734.333 479.127C732.467 475.581 731.255 471.609 730.883 467.36C729.396 450.372 741.887 435.389 758.773 433.9C766.208 433.242 773.249 435.306 778.945 439.271L778.937 439.264Z" fill="#F6F9FD"/>
</g>
<path d="M658.379 707.146C662.896 707.146 666.931 705.748 670.538 702.412C671.453 701.497 671.719 700.208 670.966 699.184C670.213 698.161 668.708 698.269 667.684 699.076C665.052 701.443 661.927 702.683 658.379 702.683C651.117 702.683 645.679 696.655 645.679 689.555C645.679 681.859 651.437 676.264 658.488 676.264C661.927 676.264 665.101 677.662 667.684 680.033C668.708 680.84 670.213 680.944 671.02 679.925C671.719 678.956 671.507 677.558 670.538 676.697C666.985 673.415 663.005 671.855 658.217 671.855C648.317 671.855 641 680.353 641 689.555C641 699.184 648.853 707.146 658.379 707.146Z" fill="#725427"/>
<path d="M677.852 704.299C677.852 705.913 679.032 706.72 680.218 706.72C681.345 706.72 682.477 705.859 682.477 704.299V674.382C682.477 673.039 681.399 672.016 680.11 672.016C678.87 672.016 677.852 673.039 677.852 674.382V704.299Z" fill="#725427"/>
<path d="M701.1 707.099C708.146 707.099 713.903 701.287 713.903 694.236C713.903 687.082 708.146 681.379 701.1 681.379C694.048 681.379 688.242 687.082 688.242 694.236C688.242 701.287 694.048 707.099 701.1 707.099ZM701.1 702.631C696.42 702.631 692.651 698.812 692.651 694.236C692.651 689.557 696.42 685.793 701.1 685.793C705.779 685.793 709.494 689.557 709.494 694.236C709.494 698.812 705.779 702.631 701.1 702.631Z" fill="#725427"/>
<path d="M740.857 681.648C739.563 681.648 738.436 682.667 738.436 683.961V694.56C738.491 699.077 735.745 702.359 731.385 702.359C727.08 702.359 723.852 699.131 723.852 694.668V683.961C723.852 682.667 722.779 681.648 721.485 681.648C720.25 681.648 719.227 682.667 719.227 683.961V694.668C719.227 701.498 724.556 707.098 730.632 707.098C734.83 707.098 737.629 705.267 739.455 702.202V704.46C739.455 706.128 740.424 706.719 741.285 706.719C742.255 706.719 743.116 705.803 743.116 704.672V683.961C743.116 682.667 742.147 681.648 740.857 681.648Z" fill="#725427"/>
<path d="M772.005 672.016C770.662 672.016 769.692 673.093 769.692 674.437V685.198C767.699 682.885 764.85 681.379 761.514 681.379C754.414 681.379 748.711 687.082 748.711 694.183C748.711 701.234 754.414 707.099 761.027 707.099C765.278 707.099 768.669 705.106 770.716 701.824V704.354C770.716 706.13 771.68 706.72 772.541 706.72C773.456 706.72 774.318 705.805 774.318 704.57V674.437C774.318 673.093 773.299 672.016 772.005 672.016ZM761.514 702.631C756.835 702.631 753.12 698.813 753.12 694.183C753.12 689.503 756.835 685.793 761.514 685.793C766.194 685.793 769.963 689.503 769.963 694.183C769.963 698.813 766.194 702.631 761.514 702.631Z" fill="#725427"/>
<path d="M791.198 707.146C797.979 707.146 803.032 703.057 803.032 696.926C803.032 691.277 797.979 688.748 791.681 686.327C789.314 685.412 785.712 684.068 785.712 680.57C785.712 677.396 788.399 676.264 790.982 676.264C793.673 676.264 796.203 677.017 797.708 678.956C798.84 680.353 800.346 679.925 800.99 679.276C801.527 678.739 801.96 677.716 801.418 676.855C799.43 673.573 795.45 671.855 791.253 671.855C785.712 671.855 781.136 674.867 781.136 680.678C781.136 686.489 785.978 688.964 790.82 690.844C795.233 692.566 798.353 693.914 798.353 696.926C798.353 701.015 795.396 702.737 791.681 702.737C787.916 702.737 785.171 701.177 784.098 699.184C783.394 697.949 782.533 697.895 781.943 697.895C780.221 697.895 779.36 699.671 780.221 701.285C781.835 704.351 785.658 707.146 791.198 707.146Z" fill="#725427"/>
<path d="M820.508 681.379C813.082 681.379 807.812 687.082 807.812 694.182C807.812 701.287 813.082 707.099 820.399 707.099C824.272 707.099 827.234 705.805 829.276 703.708C830.299 702.631 830.245 701.233 829.655 700.481C828.686 699.241 827.126 699.728 826.21 700.535C824.651 701.932 822.874 702.631 820.562 702.631C816.689 702.631 813.515 699.939 812.654 696.229H830.245C831.643 696.229 832.292 695.043 832.292 693.375C832.292 686.974 827.45 681.379 820.508 681.379ZM812.708 691.978C813.673 688.425 816.797 685.793 820.67 685.793C824.597 685.793 827.987 688.588 828.149 691.978H812.708Z" fill="#725427"/>
<path d="M851.385 681.539C847.03 681.539 843.586 683.581 841.485 686.971V684.014C841.485 682.292 840.515 681.647 839.659 681.647C838.744 681.647 837.883 682.612 837.883 683.798V704.567C837.883 705.748 838.473 706.718 839.659 706.718C839.762 706.718 839.871 706.718 839.979 706.718H840.25C841.485 706.718 842.508 705.694 842.508 704.405V695.258C842.508 690.199 846.272 686.164 851.385 686.164C852.999 686.164 853.806 684.983 853.806 683.798C853.806 682.666 853.107 681.539 851.385 681.539Z" fill="#725427"/>
<path d="M866.955 706.719C868.136 706.719 869.213 706.02 869.804 704.623L878.685 684.985C879.384 683.42 878.415 681.703 876.692 681.648C875.669 681.648 874.808 682.185 874.542 683.046L866.955 700.637L859.475 683.046C859.096 682.131 858.186 681.648 857.271 681.648C855.495 681.703 854.634 683.636 855.224 684.93L864.155 704.623C864.75 706.02 865.769 706.719 866.955 706.719Z" fill="#725427"/>
<path d="M894.172 681.379C886.746 681.379 881.477 687.082 881.477 694.182C881.477 701.287 886.746 707.099 894.063 707.099C897.936 707.099 900.898 705.805 902.94 703.708C903.964 702.631 903.909 701.233 903.319 700.481C902.35 699.241 900.79 699.728 899.875 700.535C898.315 701.932 896.538 702.631 894.226 702.631C890.353 702.631 887.179 699.939 886.318 696.229H903.909C905.307 696.229 905.956 695.043 905.956 693.375C905.956 686.974 901.115 681.379 894.172 681.379ZM886.373 691.978C887.337 688.425 890.462 685.793 894.334 685.793C898.261 685.793 901.651 688.588 901.813 691.978H886.373Z" fill="#725427"/>
<g clip-path="url(#clip1_568_4300)">
<path d="M797.714 213.547H735.429C727.842 213.547 721.69 219.701 721.69 227.293C721.69 234.885 727.842 241.039 735.429 241.039H797.714C805.301 241.039 811.453 234.885 811.453 227.293C811.453 219.701 805.301 213.547 797.714 213.547Z" fill="#FBA702" stroke="black" stroke-width="4.16757" stroke-miterlimit="10"/>
<path d="M718.016 217.609H716.627V217.582C717.09 217.6 717.553 217.609 718.016 217.609Z" stroke="#FBA702" stroke-width="2.08378" stroke-miterlimit="10"/>
<path d="M802.81 149.484C802.81 150.602 802.765 151.711 802.692 152.81H794.166C794.256 151.711 794.311 150.602 794.311 149.484C794.311 127.854 776.794 110.332 755.182 110.332C733.57 110.332 716.063 127.854 716.063 149.484C716.063 150.602 716.108 151.72 716.208 152.81C716.299 153.947 716.444 155.055 716.635 156.164C715.672 156.073 714.692 156.019 713.711 156.019C713.284 156.019 712.867 156.019 712.44 156.046C710.96 156.1 709.507 156.273 708.09 156.537C707.745 154.228 707.563 151.883 707.563 149.484C707.573 123.156 728.885 101.816 755.191 101.816C781.498 101.816 802.819 123.156 802.819 149.484H802.81Z" fill="#0A68FF" stroke="black" stroke-width="4.16757" stroke-miterlimit="10"/>
<path d="M718.963 164.27C717.283 163.87 715.521 163.661 713.723 163.661C713.297 163.661 712.879 163.661 712.452 163.706C711.562 163.752 710.691 163.852 709.828 163.997C698.904 165.842 690.586 175.357 690.586 186.818C690.586 199.178 700.266 209.284 712.452 209.929V217.59C696.043 216.927 682.949 203.404 682.949 186.818C682.949 171.731 693.782 159.18 708.094 156.536C709.51 156.272 710.963 156.108 712.443 156.045C712.87 156.027 713.288 156.018 713.714 156.018C714.704 156.018 715.676 156.063 716.638 156.163C717.12 158.98 717.901 161.698 718.954 164.27H718.963Z" fill="#0A68FF" stroke="black" stroke-width="4.16757" stroke-miterlimit="10"/>
<path d="M850.187 186.011C850.187 194.745 846.654 202.643 840.942 208.359C835.231 214.076 827.349 217.611 818.622 217.611H713.714C713.287 217.611 712.869 217.611 712.442 217.584V209.922C700.256 209.277 690.576 199.18 690.576 186.811C690.576 175.351 698.894 165.835 709.818 163.99C710.681 163.845 711.552 163.745 712.442 163.699C712.869 163.663 713.287 163.654 713.714 163.654C715.512 163.654 717.273 163.863 718.953 164.263C717.9 161.691 717.119 158.974 716.638 156.156C716.447 155.057 716.302 153.939 716.211 152.803C716.12 151.703 716.066 150.594 716.066 149.476C716.066 127.846 733.582 110.324 755.185 110.324C776.788 110.324 794.313 127.846 794.313 149.476C794.313 150.594 794.268 151.712 794.168 152.803H817.015C835.331 152.803 850.177 167.662 850.177 186.002L850.187 186.011Z" fill="#0A68FF" stroke="black" stroke-width="4.16757" stroke-miterlimit="10"/>
<path d="M796.069 152.811H761.726" stroke="black" stroke-width="4.16757" stroke-miterlimit="10" stroke-linecap="round"/>
<path d="M776.175 118.556C770.109 115.784 763.262 114.493 756.152 115.12C734.249 117.047 718.04 136.378 719.966 158.317C720.229 161.325 720.819 164.224 721.7 166.987C719.421 162.679 717.941 157.853 717.487 152.691C715.67 132.052 730.926 113.848 751.548 112.039C760.629 111.24 769.228 113.748 776.184 118.565L776.175 118.556Z" fill="#F6F9FD"/>
<path d="M735.487 241.049L760.913 317.981C762.766 323.597 770.375 323.597 772.228 317.981L797.653 241.049H735.487Z" fill="#FBA702" stroke="black" stroke-width="4.16757" stroke-miterlimit="10"/>
<path d="M810.723 201.787H722.414C714.826 201.787 708.675 207.941 708.675 215.533C708.675 223.125 714.826 229.279 722.414 229.279H810.723C818.311 229.279 824.462 223.125 824.462 215.533C824.462 207.941 818.311 201.787 810.723 201.787Z" fill="#FBA702" stroke="black" stroke-width="4.16757" stroke-miterlimit="10"/>
</g>
<path d="M656.188 386.889C660.538 386.889 664.424 385.543 667.897 382.331C668.778 381.449 669.034 380.208 668.309 379.222C667.584 378.237 666.134 378.341 665.148 379.118C662.614 381.397 659.605 382.591 656.188 382.591C649.195 382.591 643.959 376.787 643.959 369.95C643.959 362.539 649.503 357.152 656.293 357.152C659.605 357.152 662.661 358.497 665.148 360.781C666.134 361.558 667.584 361.658 668.361 360.677C669.034 359.743 668.83 358.398 667.897 357.569C664.476 354.408 660.642 352.906 656.032 352.906C646.499 352.906 639.453 361.089 639.453 369.95C639.453 379.222 647.015 386.889 656.188 386.889Z" fill="#150035"/>
<path d="M674.945 384.146C674.945 385.7 676.082 386.477 677.224 386.477C678.309 386.477 679.399 385.648 679.399 384.146V355.338C679.399 354.044 678.362 353.059 677.12 353.059C675.926 353.059 674.945 354.044 674.945 355.338V384.146Z" fill="#150035"/>
<path d="M697.311 386.841C704.096 386.841 709.639 381.245 709.639 374.455C709.639 367.566 704.096 362.074 697.311 362.074C690.521 362.074 684.93 367.566 684.93 374.455C684.93 381.245 690.521 386.841 697.311 386.841ZM697.311 382.539C692.805 382.539 689.175 378.862 689.175 374.455C689.175 369.949 692.805 366.324 697.311 366.324C701.817 366.324 705.394 369.949 705.394 374.455C705.394 378.862 701.817 382.539 697.311 382.539Z" fill="#150035"/>
<path d="M735.618 362.336C734.372 362.336 733.287 363.317 733.287 364.563V374.769C733.339 379.119 730.695 382.279 726.497 382.279C722.351 382.279 719.243 379.171 719.243 374.873V364.563C719.243 363.317 718.21 362.336 716.964 362.336C715.775 362.336 714.789 363.317 714.789 364.563V374.873C714.789 381.45 719.921 386.842 725.772 386.842C729.814 386.842 732.51 385.079 734.268 382.127V384.302C734.268 385.909 735.201 386.477 736.03 386.477C736.964 386.477 737.793 385.596 737.793 384.506V364.563C737.793 363.317 736.86 362.336 735.618 362.336Z" fill="#150035"/>
<path d="M765.603 353.059C764.309 353.059 763.376 354.096 763.376 355.39V365.752C761.457 363.525 758.713 362.075 755.501 362.075C748.663 362.075 743.172 367.567 743.172 374.404C743.172 381.194 748.663 386.842 755.032 386.842C759.125 386.842 762.39 384.923 764.361 381.763V384.198C764.361 385.909 765.29 386.477 766.119 386.477C767 386.477 767.83 385.596 767.83 384.407V355.39C767.83 354.096 766.849 353.059 765.603 353.059ZM755.501 382.54C750.995 382.54 747.417 378.863 747.417 374.404C747.417 369.898 750.995 366.326 755.501 366.326C760.007 366.326 763.636 369.898 763.636 374.404C763.636 378.863 760.007 382.54 755.501 382.54Z" fill="#150035"/>
<path d="M784.084 386.889C790.613 386.889 795.479 382.951 795.479 377.047C795.479 371.608 790.613 369.173 784.548 366.841C782.269 365.96 778.801 364.666 778.801 361.298C778.801 358.241 781.388 357.152 783.875 357.152C786.467 357.152 788.903 357.877 790.352 359.743C791.442 361.089 792.892 360.677 793.513 360.051C794.029 359.535 794.446 358.549 793.925 357.72C792.011 354.56 788.178 352.906 784.136 352.906C778.801 352.906 774.394 355.806 774.394 361.402C774.394 366.998 779.057 369.381 783.719 371.191C787.969 372.849 790.973 374.148 790.973 377.047C790.973 380.985 788.125 382.643 784.548 382.643C780.923 382.643 778.279 381.141 777.247 379.222C776.569 378.033 775.74 377.981 775.171 377.981C773.513 377.981 772.684 379.691 773.513 381.246C775.067 384.197 778.749 386.889 784.084 386.889Z" fill="#150035"/>
<path d="M812.326 362.074C805.176 362.074 800.102 367.566 800.102 374.403C800.102 381.245 805.176 386.841 812.222 386.841C815.951 386.841 818.803 385.595 820.77 383.576C821.755 382.539 821.703 381.193 821.134 380.468C820.201 379.274 818.699 379.743 817.818 380.52C816.316 381.866 814.605 382.539 812.378 382.539C808.649 382.539 805.593 379.947 804.764 376.374H821.703C823.049 376.374 823.674 375.232 823.674 373.626C823.674 367.462 819.012 362.074 812.326 362.074ZM804.816 372.28C805.745 368.859 808.754 366.324 812.483 366.324C816.264 366.324 819.528 369.016 819.685 372.28H804.816Z" fill="#150035"/>
<path d="M842.056 362.23C837.863 362.23 834.546 364.197 832.523 367.461V364.614C832.523 362.955 831.59 362.335 830.765 362.335C829.884 362.335 829.055 363.263 829.055 364.405V384.405C829.055 385.542 829.623 386.476 830.765 386.476C830.865 386.476 830.969 386.476 831.073 386.476H831.334C832.523 386.476 833.509 385.49 833.509 384.249V375.441C833.509 370.57 837.133 366.684 842.056 366.684C843.61 366.684 844.388 365.547 844.388 364.405C844.388 363.316 843.715 362.23 842.056 362.23Z" fill="#150035"/>
<path d="M857.029 386.477C858.166 386.477 859.204 385.804 859.772 384.459L868.325 365.548C868.997 364.042 868.064 362.388 866.406 362.336C865.42 362.336 864.591 362.852 864.335 363.682L857.029 380.621L849.827 363.682C849.462 362.8 848.585 362.336 847.704 362.336C845.993 362.388 845.164 364.25 845.733 365.496L854.333 384.459C854.906 385.804 855.887 386.477 857.029 386.477Z" fill="#150035"/>
<path d="M883.225 362.074C876.075 362.074 871 367.566 871 374.403C871 381.245 876.075 386.841 883.12 386.841C886.849 386.841 889.702 385.595 891.668 383.576C892.654 382.539 892.602 381.193 892.033 380.468C891.1 379.274 889.597 379.743 888.716 380.52C887.214 381.866 885.504 382.539 883.277 382.539C879.548 382.539 876.492 379.947 875.662 376.374H892.602C893.947 376.374 894.573 375.232 894.573 373.626C894.573 367.462 889.91 362.074 883.225 362.074ZM875.715 372.28C876.643 368.859 879.652 366.324 883.381 366.324C887.162 366.324 890.427 369.016 890.583 372.28H875.715Z" fill="#150035"/>
<mask id="mask4_568_4300" style="mask-type:luminance" maskUnits="userSpaceOnUse" x="201" y="511" width="119" height="208">
<path d="M201 511.094H320V718.821H201V511.094Z" fill="white"/>
</mask>
<g mask="url(#mask4_568_4300)">
<path d="M315.811 584.27C317.005 580.125 317.716 575.898 317.937 571.598C318.166 567.29 317.896 563.014 317.144 558.771C316.383 554.528 315.157 550.424 313.465 546.459C311.764 542.494 309.647 538.774 307.096 535.3C284.295 503.792 237.524 503.8 214.723 535.3C212.173 538.774 210.055 542.494 208.355 546.459C206.662 550.424 205.436 554.528 204.684 558.771C203.924 563.014 203.662 567.29 203.883 571.598C204.112 575.898 204.815 580.125 206.008 584.27C205.616 584.646 205.248 585.055 204.905 585.488C204.553 585.913 204.243 586.363 203.948 586.829C203.662 587.295 203.401 587.777 203.172 588.284C202.943 588.783 202.738 589.289 202.575 589.813C202.411 590.336 202.272 590.875 202.174 591.415C202.068 591.955 202.003 592.502 201.97 593.05C201.937 593.598 201.937 594.146 201.97 594.693C202.003 595.241 202.068 595.789 202.166 596.328C202.264 596.868 202.403 597.399 202.567 597.931C202.73 598.454 202.935 598.961 203.163 599.468C203.392 599.966 203.646 600.449 203.94 600.915C204.226 601.389 204.545 601.83 204.888 602.264C205.232 602.697 205.6 603.098 205.992 603.482C206.385 603.866 206.801 604.226 207.243 604.561C207.676 604.888 208.134 605.199 208.616 605.468C209.091 605.746 209.581 605.992 210.088 606.212C209.393 607.635 209.041 609.139 209.05 610.725V616.636C209.05 617.748 209.221 618.835 209.573 619.89C209.924 620.944 210.439 621.925 211.102 622.816C211.772 623.708 212.557 624.468 213.473 625.106C214.388 625.743 215.377 626.226 216.44 626.544L231.63 707.104C231.924 708.682 232.48 710.162 233.298 711.543C234.115 712.925 235.137 714.127 236.372 715.157C237.606 716.179 238.98 716.963 240.492 717.511C242.004 718.051 243.558 718.329 245.16 718.329H276.66C278.27 718.329 279.823 718.051 281.336 717.511C282.84 716.963 284.214 716.179 285.456 715.157C286.691 714.127 287.713 712.925 288.53 711.543C289.348 710.162 289.904 708.682 290.198 707.104L302.935 639.535C303.017 639.085 303.017 638.636 302.919 638.186C302.829 637.745 302.649 637.328 302.396 636.952C302.134 636.575 301.815 636.265 301.431 636.011C301.055 635.766 300.638 635.594 300.188 635.513C299.739 635.431 299.289 635.431 298.847 635.529C298.398 635.619 297.989 635.791 297.605 636.052C297.229 636.306 296.918 636.633 296.665 637.009C296.419 637.393 296.248 637.81 296.166 638.26L283.429 705.829C283.282 706.613 283.004 707.357 282.595 708.052C282.186 708.739 281.671 709.344 281.058 709.851C280.437 710.366 279.75 710.758 278.998 711.028C278.246 711.306 277.461 711.437 276.66 711.437H245.16C244.359 711.437 243.582 711.306 242.83 711.028C242.07 710.758 241.383 710.366 240.77 709.851C240.149 709.344 239.634 708.739 239.233 708.052C238.824 707.357 238.546 706.613 238.391 705.829L232.971 677.068H243.182L245.536 689.552C245.626 690.001 245.79 690.418 246.043 690.802C246.288 691.178 246.599 691.505 246.983 691.759C247.359 692.021 247.768 692.192 248.218 692.29C248.659 692.38 249.109 692.388 249.558 692.298C250.008 692.217 250.425 692.045 250.809 691.8C251.185 691.546 251.504 691.236 251.766 690.86C252.027 690.484 252.199 690.067 252.289 689.625C252.387 689.176 252.387 688.726 252.305 688.276L250.196 677.068H255.355C255.813 677.068 256.254 676.986 256.679 676.806C257.096 676.635 257.472 676.389 257.791 676.062C258.118 675.743 258.363 675.367 258.543 674.942C258.715 674.525 258.805 674.084 258.805 673.626C258.805 673.168 258.715 672.735 258.543 672.31C258.363 671.885 258.118 671.517 257.791 671.19C257.472 670.871 257.096 670.618 256.679 670.446C256.254 670.274 255.813 670.184 255.355 670.184H248.896L246.345 656.654H258.895C259.352 656.654 259.794 656.572 260.219 656.392C260.636 656.221 261.012 655.976 261.331 655.649C261.658 655.33 261.903 654.954 262.083 654.529C262.255 654.112 262.345 653.67 262.345 653.212C262.345 652.754 262.255 652.321 262.083 651.896C261.903 651.471 261.658 651.103 261.331 650.776C261.012 650.457 260.636 650.204 260.219 650.032C259.794 649.86 259.352 649.77 258.895 649.77H245.046L243.051 639.167C242.969 638.717 242.797 638.3 242.552 637.924C242.299 637.54 241.988 637.221 241.604 636.96C241.228 636.706 240.819 636.526 240.369 636.437C239.928 636.338 239.478 636.338 239.029 636.42C238.579 636.51 238.162 636.674 237.778 636.927C237.402 637.172 237.083 637.483 236.821 637.867C236.568 638.243 236.388 638.652 236.298 639.102C236.2 639.543 236.2 639.993 236.282 640.442L238.039 649.77H227.828L223.528 626.969H248.921C249.379 626.969 249.82 626.88 250.237 626.708C250.662 626.528 251.038 626.283 251.357 625.956C251.684 625.637 251.929 625.261 252.101 624.844C252.281 624.419 252.363 623.977 252.363 623.528C252.363 623.07 252.281 622.628 252.101 622.203C251.929 621.786 251.684 621.41 251.357 621.091C251.038 620.764 250.662 620.519 250.237 620.339C249.82 620.168 249.379 620.078 248.921 620.078H219.375C218.917 620.078 218.484 619.996 218.059 619.816C217.642 619.644 217.266 619.391 216.947 619.072C216.62 618.745 216.375 618.377 216.195 617.952C216.023 617.535 215.933 617.094 215.933 616.636V610.717C215.933 610.267 216.023 609.826 216.195 609.401C216.375 608.984 216.62 608.608 216.947 608.289C217.266 607.962 217.642 607.717 218.059 607.537C218.484 607.365 218.917 607.275 219.375 607.275H259.254V636.813C259.254 637.557 259.328 638.292 259.475 639.02C259.614 639.748 259.835 640.459 260.121 641.145C260.407 641.832 260.75 642.486 261.167 643.108C261.584 643.729 262.05 644.301 262.582 644.824C263.105 645.348 263.677 645.822 264.298 646.231C264.92 646.647 265.574 646.999 266.261 647.285C266.947 647.563 267.659 647.784 268.386 647.923C269.122 648.07 269.858 648.144 270.602 648.144C271.346 648.144 272.081 648.07 272.809 647.923C273.545 647.784 274.256 647.563 274.943 647.285C275.629 646.999 276.284 646.647 276.905 646.231C277.518 645.822 278.09 645.348 278.622 644.824C279.145 644.301 279.619 643.729 280.028 643.108C280.445 642.486 280.796 641.832 281.082 641.145C281.369 640.459 281.581 639.748 281.728 639.02C281.875 638.292 281.949 637.557 281.949 636.813V629.079C282.922 629.479 283.936 629.733 284.982 629.839C286.029 629.953 287.067 629.913 288.105 629.725C289.143 629.537 290.133 629.21 291.073 628.744C292.013 628.278 292.871 627.681 293.648 626.969H302.445C303.123 626.969 303.793 626.904 304.464 626.765C305.126 626.634 305.772 626.438 306.401 626.176C307.023 625.915 307.62 625.604 308.184 625.22C308.748 624.844 309.271 624.419 309.745 623.936C310.227 623.462 310.661 622.939 311.037 622.375C311.413 621.811 311.732 621.214 311.985 620.593C312.247 619.963 312.443 619.317 312.582 618.655C312.713 617.985 312.778 617.314 312.778 616.636V610.717C312.778 609.139 312.435 607.635 311.74 606.212C312.247 605.992 312.737 605.746 313.211 605.468C313.686 605.199 314.143 604.888 314.585 604.561C315.018 604.226 315.435 603.866 315.828 603.482C316.228 603.098 316.596 602.697 316.939 602.264C317.283 601.83 317.602 601.389 317.888 600.915C318.174 600.449 318.435 599.966 318.664 599.468C318.893 598.961 319.09 598.454 319.261 597.931C319.425 597.399 319.556 596.868 319.654 596.328C319.76 595.789 319.825 595.241 319.858 594.693C319.891 594.146 319.891 593.598 319.858 593.05C319.825 592.502 319.752 591.955 319.654 591.415C319.547 590.875 319.417 590.336 319.253 589.813C319.081 589.289 318.885 588.783 318.656 588.284C318.427 587.777 318.166 587.295 317.871 586.829C317.585 586.363 317.266 585.913 316.923 585.488C316.58 585.055 316.212 584.646 315.811 584.27ZM239.339 656.654L241.89 670.184H231.679L229.128 656.654H239.339ZM305.895 616.636C305.886 617.094 305.805 617.535 305.625 617.952C305.453 618.377 305.2 618.745 304.881 619.072C304.562 619.391 304.186 619.644 303.761 619.816C303.344 619.996 302.902 620.078 302.445 620.078H297.155C297.253 619.154 297.229 619.677 297.229 607.275H302.445C302.902 607.275 303.344 607.365 303.761 607.537C304.186 607.717 304.562 607.962 304.881 608.289C305.2 608.608 305.453 608.984 305.625 609.401C305.805 609.826 305.886 610.267 305.895 610.717V616.636ZM306.5 600.392H293.779C293.329 600.392 292.888 600.473 292.462 600.653C292.046 600.825 291.669 601.078 291.342 601.397C291.024 601.724 290.778 602.092 290.599 602.517C290.427 602.934 290.337 603.376 290.337 603.833V618.819C290.337 619.375 290.231 619.914 290.018 620.421C289.806 620.936 289.503 621.394 289.111 621.786C288.718 622.179 288.26 622.481 287.745 622.694C287.238 622.906 286.699 623.013 286.143 623.013C285.587 623.013 285.056 622.906 284.541 622.694C284.026 622.481 283.568 622.179 283.175 621.786C282.783 621.394 282.48 620.936 282.268 620.421C282.055 619.914 281.949 619.375 281.949 618.819V617.666C281.949 617.208 281.859 616.767 281.687 616.35C281.516 615.925 281.262 615.549 280.943 615.23C280.616 614.903 280.249 614.657 279.823 614.486C279.398 614.306 278.965 614.224 278.507 614.224C278.049 614.224 277.608 614.306 277.191 614.486C276.766 614.657 276.398 614.903 276.071 615.23C275.752 615.549 275.499 615.925 275.327 616.35C275.147 616.767 275.065 617.208 275.065 617.666V636.813C275.065 637.401 274.951 637.965 274.722 638.513C274.493 639.061 274.174 639.543 273.757 639.96C273.332 640.377 272.85 640.704 272.31 640.925C271.763 641.154 271.19 641.268 270.602 641.268C270.013 641.268 269.441 641.154 268.893 640.925C268.345 640.704 267.863 640.377 267.446 639.96C267.029 639.543 266.71 639.061 266.481 638.513C266.252 637.965 266.138 637.401 266.138 636.813V603.833C266.138 603.376 266.048 602.934 265.876 602.517C265.705 602.092 265.451 601.724 265.132 601.397C264.805 601.078 264.437 600.825 264.012 600.653C263.587 600.473 263.154 600.392 262.696 600.392H215.32C214.617 600.392 213.93 600.277 213.268 600.056C212.598 599.836 211.985 599.509 211.421 599.083C210.856 598.667 210.374 598.168 209.973 597.587C209.573 597.007 209.279 596.377 209.082 595.707C208.886 595.028 208.804 594.342 208.829 593.639C208.853 592.936 208.992 592.249 209.246 591.595C209.491 590.933 209.834 590.336 210.284 589.788C210.726 589.24 211.249 588.783 211.837 588.398C212.508 587.981 212.966 587.401 213.235 586.657C213.497 585.913 213.505 585.169 213.26 584.417C212.001 580.656 211.208 576.798 210.873 572.841C210.546 568.884 210.685 564.943 211.298 561.019C211.911 557.103 212.974 553.31 214.503 549.639C216.023 545.977 217.953 542.543 220.307 539.338C240.353 511.64 281.467 511.632 301.513 539.338C303.867 542.535 305.796 545.968 307.325 549.639C308.846 553.302 309.917 557.095 310.53 561.019C311.143 564.943 311.282 568.884 310.947 572.841C310.62 576.798 309.819 580.656 308.56 584.417C308.314 585.169 308.323 585.913 308.592 586.657C308.854 587.401 309.32 587.981 309.982 588.398C310.579 588.783 311.094 589.24 311.544 589.788C311.985 590.336 312.337 590.933 312.582 591.595C312.827 592.249 312.966 592.936 312.999 593.639C313.023 594.342 312.942 595.028 312.745 595.707C312.549 596.377 312.247 597.007 311.846 597.587C311.446 598.168 310.963 598.667 310.407 599.083C309.843 599.509 309.23 599.836 308.56 600.056C307.889 600.277 307.203 600.392 306.5 600.392Z" fill="#0A68FF"/>
</g>
<path d="M202 608H258.448V636.574L260.464 645.5L264.5 654.5L279.5 647L298 631H308L291 719H202V608Z" fill="white"/>
<path d="M297 608H319V629H297V621.5V608Z" fill="white"/>
<path d="M298.789 627.998L297.332 622.739L293.382 627.262L298.789 627.998Z" fill="white"/>
<path d="M201 511.094H224.5H227.5H248H295L316 522.094L323 600.094H201V511.094Z" fill="white"/>
<mask id="mask5_568_4300" style="mask-type:luminance" maskUnits="userSpaceOnUse" x="159" y="489" width="198" height="120">
<path d="M159 489H356.328V608.092H159V489Z" fill="white"/>
</mask>
<g mask="url(#mask5_568_4300)">
<path d="M289.912 565.325C289.912 567.444 288.192 569.169 286.073 569.169C283.954 569.169 282.229 567.444 282.229 565.325V536.675C282.229 534.556 283.954 532.836 286.073 532.836C288.192 532.836 289.912 534.556 289.912 536.675V565.325ZM232.766 540.542C229.497 540.542 226.472 542.307 224.245 545.173C221.795 548.311 220.292 552.68 220.292 557.579C220.292 562.482 221.795 566.851 224.245 569.984C226.472 572.855 229.497 574.62 232.766 574.62C236.03 574.62 239.054 572.855 241.286 569.984C243.736 566.851 245.234 562.482 245.234 557.579C245.234 552.68 243.736 548.311 241.286 545.173C239.032 542.307 236.03 540.542 232.766 540.542ZM322.162 608.459H192.901C183.565 608.459 175.089 604.661 168.95 598.548C162.838 592.432 159.039 583.956 159.039 574.62C159.039 565.701 162.507 557.579 168.18 551.512C172.902 546.454 179.173 542.837 186.213 541.424L186.145 540.981C185.905 539.369 185.792 537.734 185.792 536.105C185.792 526.742 189.591 518.289 195.703 512.154C201.842 506.037 210.295 502.243 219.654 502.243C223.538 502.243 227.292 502.904 230.801 504.14C233.205 504.978 235.482 506.082 237.601 507.409C242.192 502.112 247.797 497.738 254.086 494.582C261.284 491.006 269.362 489 277.905 489C292.647 489 305.98 494.981 315.629 504.625C325.209 514.205 331.167 527.407 331.253 541.995C337.922 543.851 343.772 547.691 348.096 552.856C353.04 558.751 356.019 566.321 356.019 574.598C356.019 583.956 352.225 592.409 346.108 598.548C339.973 604.683 331.52 608.459 322.162 608.459ZM282.206 600.753V581.045C279.204 580.361 276.515 578.813 274.396 576.717C271.481 573.805 269.647 569.762 269.647 565.307V536.675C269.647 534.556 271.372 532.836 273.491 532.836C275.61 532.836 277.33 534.556 277.33 536.675V565.325C277.33 567.643 278.281 569.762 279.802 571.288C281.323 572.809 283.442 573.76 285.76 573.76H286.29C288.608 573.76 290.727 572.809 292.253 571.288C293.774 569.762 294.725 567.643 294.725 565.325V536.675C294.725 534.556 296.445 532.836 298.564 532.836C300.683 532.836 302.426 534.556 302.426 536.675V565.325C302.426 569.762 300.615 573.805 297.681 576.739C295.563 578.858 292.869 580.379 289.867 581.068V600.776H322.162C329.379 600.776 335.912 597.842 340.657 593.115C345.384 588.393 348.317 581.837 348.317 574.62C348.317 568.218 346.022 562.346 342.201 557.8C338.316 553.187 332.888 549.923 326.685 548.859C324.679 548.505 323.307 546.676 323.506 544.666C323.529 544.25 323.552 543.896 323.552 543.607C323.552 543.521 323.552 543.122 323.552 542.348C323.552 529.743 318.431 518.334 310.173 510.058C301.942 501.799 290.51 496.701 277.905 496.701C270.575 496.701 263.666 498.422 257.531 501.491C251.152 504.67 245.633 509.306 241.395 514.934C240.114 516.636 237.71 516.967 236.03 515.708L235.944 515.64C233.671 513.829 231.086 512.376 228.283 511.402C225.612 510.474 222.701 509.967 219.654 509.967C212.437 509.967 205.904 512.905 201.154 517.628C196.432 522.35 193.498 528.906 193.498 536.123C193.498 537.449 193.584 538.708 193.761 539.921C193.937 541.18 194.227 542.393 194.58 543.607C195.173 545.64 194.028 547.781 191.995 548.397C191.665 548.487 191.357 548.551 191.026 548.551C184.226 549.035 178.154 552.105 173.785 556.764C169.416 561.423 166.745 567.711 166.745 574.643C166.745 581.86 169.679 588.393 174.406 593.138C179.128 597.865 185.684 600.799 192.901 600.799H228.614V581.815C224.553 580.778 220.976 578.26 218.219 574.729C214.755 570.292 212.613 564.248 212.613 557.601C212.613 550.959 214.755 544.911 218.219 540.474C221.881 535.769 227.025 532.858 232.788 532.858C238.525 532.858 243.668 535.769 247.353 540.474C250.821 544.911 252.963 550.959 252.963 557.601C252.963 564.248 250.821 570.292 247.353 574.729C244.465 578.437 240.643 581.022 236.342 581.95V600.776H282.206V600.753Z" fill="#0A68FF"/>
<path d="M201 526.094H224.5H227.5H248H295L316 535.24L322.173 600.883H201V526.094Z" fill="white"/>
<path d="M218.245 519.342C215.386 520.874 212.902 522.879 210.808 525.353C208.709 527.832 207.146 530.608 206.11 533.686C206.021 533.962 205.985 534.249 206.006 534.535C206.027 534.827 206.105 535.103 206.235 535.363C206.365 535.624 206.537 535.847 206.756 536.035C206.98 536.228 207.224 536.368 207.501 536.462C207.777 536.551 208.058 536.587 208.349 536.566C208.641 536.545 208.917 536.472 209.178 536.342C209.433 536.212 209.662 536.035 209.849 535.816C210.042 535.597 210.183 535.347 210.277 535.071C211.131 532.535 212.422 530.238 214.152 528.191C215.881 526.144 217.933 524.488 220.297 523.222C220.553 523.087 220.771 522.91 220.959 522.686C221.141 522.462 221.277 522.212 221.365 521.931C221.448 521.655 221.48 521.368 221.448 521.082C221.422 520.79 221.344 520.519 221.209 520.264C221.073 520.004 220.891 519.785 220.667 519.597C220.443 519.415 220.193 519.28 219.917 519.191C219.641 519.108 219.355 519.077 219.068 519.103C218.777 519.129 218.506 519.207 218.245 519.342Z" fill="#0A68FF"/>
</g>
<path d="M266.14 578.094H290.342V614.094H266.141L266.14 578.094Z" fill="white"/>
<path d="M144.396 703.448C149.177 703.448 153.448 701.969 157.266 698.438C158.234 697.469 158.516 696.104 157.719 695.021C156.922 693.938 155.328 694.052 154.245 694.906C151.458 697.411 148.151 698.724 144.396 698.724C136.708 698.724 130.953 692.344 130.953 684.828C130.953 676.682 137.047 670.76 144.51 670.76C148.151 670.76 151.51 672.24 154.245 674.75C155.328 675.604 156.922 675.714 157.776 674.635C158.516 673.609 158.292 672.13 157.266 671.219C153.505 667.745 149.292 666.094 144.224 666.094C133.745 666.094 126 675.089 126 684.828C126 695.021 134.313 703.448 144.396 703.448Z" fill="#2C3892"/>
<path d="M165 700.434C165 702.142 166.25 702.996 167.505 702.996C168.698 702.996 169.896 702.085 169.896 700.434V668.767C169.896 667.345 168.755 666.262 167.391 666.262C166.078 666.262 165 667.345 165 668.767V700.434Z" fill="#2C3892"/>
<path d="M189.602 703.396C197.06 703.396 203.154 697.245 203.154 689.781C203.154 682.208 197.06 676.172 189.602 676.172C182.138 676.172 175.992 682.208 175.992 689.781C175.992 697.245 182.138 703.396 189.602 703.396ZM189.602 698.667C184.648 698.667 180.659 694.625 180.659 689.781C180.659 684.828 184.648 680.844 189.602 680.844C194.555 680.844 198.487 684.828 198.487 689.781C198.487 694.625 194.555 698.667 189.602 698.667Z" fill="#2C3892"/>
<path d="M231.685 676.457C230.315 676.457 229.122 677.535 229.122 678.905V690.124C229.18 694.905 226.273 698.379 221.659 698.379C217.102 698.379 213.685 694.962 213.685 690.238V678.905C213.685 677.535 212.549 676.457 211.18 676.457C209.872 676.457 208.789 677.535 208.789 678.905V690.238C208.789 697.467 214.43 703.395 220.862 703.395C225.305 703.395 228.268 701.457 230.201 698.212V700.603C230.201 702.368 231.227 702.993 232.138 702.993C233.164 702.993 234.076 702.025 234.076 700.827V678.905C234.076 677.535 233.049 676.457 231.685 676.457Z" fill="#2C3892"/>
<path d="M264.648 666.262C263.227 666.262 262.201 667.402 262.201 668.824V680.215C260.091 677.767 257.076 676.173 253.544 676.173C246.029 676.173 239.992 682.21 239.992 689.725C239.992 697.189 246.029 703.397 253.029 703.397C257.529 703.397 261.117 701.288 263.284 697.814V700.491C263.284 702.371 264.305 702.996 265.216 702.996C266.185 702.996 267.096 702.027 267.096 700.72V668.824C267.096 667.402 266.018 666.262 264.648 666.262ZM253.544 698.668C248.591 698.668 244.659 694.626 244.659 689.725C244.659 684.772 248.591 680.845 253.544 680.845C258.497 680.845 262.487 684.772 262.487 689.725C262.487 694.626 258.497 698.668 253.544 698.668Z" fill="#2C3892"/>
<path d="M284.97 703.448C292.147 703.448 297.496 699.12 297.496 692.63C297.496 686.651 292.147 683.974 285.48 681.411C282.975 680.443 279.162 679.021 279.162 675.318C279.162 671.958 282.006 670.76 284.74 670.76C287.589 670.76 290.266 671.557 291.86 673.609C293.058 675.089 294.652 674.635 295.334 673.948C295.902 673.38 296.36 672.297 295.787 671.385C293.683 667.911 289.47 666.094 285.027 666.094C279.162 666.094 274.319 669.281 274.319 675.432C274.319 681.583 279.444 684.203 284.569 686.193C289.24 688.016 292.542 689.443 292.542 692.63C292.542 696.958 289.412 698.781 285.48 698.781C281.496 698.781 278.589 697.13 277.454 695.021C276.709 693.714 275.798 693.656 275.173 693.656C273.35 693.656 272.438 695.536 273.35 697.245C275.058 700.49 279.105 703.448 284.97 703.448Z" fill="#2C3892"/>
<path d="M316 676.172C308.141 676.172 302.562 682.208 302.562 689.724C302.562 697.245 308.141 703.396 315.885 703.396C319.984 703.396 323.12 702.026 325.281 699.807C326.365 698.667 326.307 697.188 325.682 696.391C324.656 695.078 323.005 695.594 322.036 696.448C320.385 697.927 318.505 698.667 316.057 698.667C311.958 698.667 308.599 695.818 307.688 691.891H326.307C327.786 691.891 328.474 690.635 328.474 688.87C328.474 682.094 323.349 676.172 316 676.172ZM307.745 687.391C308.766 683.63 312.073 680.844 316.172 680.844C320.328 680.844 323.917 683.802 324.089 687.391H307.745Z" fill="#2C3892"/>
<path d="M348.682 676.344C344.073 676.344 340.427 678.505 338.203 682.094V678.964C338.203 677.141 337.177 676.458 336.271 676.458C335.302 676.458 334.391 677.479 334.391 678.734V700.719C334.391 701.969 335.016 702.995 336.271 702.995C336.38 702.995 336.495 702.995 336.609 702.995H336.896C338.203 702.995 339.286 701.911 339.286 700.547V690.865C339.286 685.51 343.271 681.24 348.682 681.24C350.391 681.24 351.245 679.99 351.245 678.734C351.245 677.536 350.505 676.344 348.682 676.344Z" fill="#2C3892"/>
<path d="M365.144 702.993C366.394 702.993 367.534 702.254 368.159 700.775L377.56 679.988C378.3 678.332 377.274 676.514 375.451 676.457C374.368 676.457 373.456 677.025 373.175 677.936L365.144 696.556L357.227 677.936C356.826 676.967 355.862 676.457 354.894 676.457C353.013 676.514 352.102 678.561 352.727 679.931L362.18 700.775C362.81 702.254 363.888 702.993 365.144 702.993Z" fill="#2C3892"/>
<path d="M393.953 676.172C386.094 676.172 380.516 682.208 380.516 689.724C380.516 697.245 386.094 703.396 393.839 703.396C397.938 703.396 401.073 702.026 403.234 699.807C404.318 698.667 404.26 697.188 403.635 696.391C402.609 695.078 400.958 695.594 399.99 696.448C398.339 697.927 396.458 698.667 394.01 698.667C389.911 698.667 386.552 695.818 385.641 691.891H404.26C405.74 691.891 406.427 690.635 406.427 688.87C406.427 682.094 401.302 676.172 393.953 676.172ZM385.698 687.391C386.719 683.63 390.026 680.844 394.125 680.844C398.281 680.844 401.87 683.802 402.042 687.391H385.698Z" fill="#2C3892"/>
<defs>
<clipPath id="clip0_568_4300">
<rect width="137.933" height="211.623" fill="white" transform="translate(692.031 430)"/>
</clipPath>
<clipPath id="clip1_568_4300">
<rect width="170.87" height="224.007" fill="white" transform="translate(681.141 100)"/>
</clipPath>
</defs>
</svg>
