<svg width="1600" height="960" viewBox="0 0 1600 960" fill="none" xmlns="http://www.w3.org/2000/svg">
<g clip-path="url(#clip0_302_322)">
<rect width="1600" height="960" fill="#2E445C"/>
<g filter="url(#filter0_d_302_322)">
<path d="M40 152C40 99.2027 40 72.804 56.402 56.402C72.804 40 99.2027 40 152 40H1448C1500.8 40 1527.2 40 1543.6 56.402C1560 72.804 1560 99.2027 1560 152V808C1560 860.797 1560 887.196 1543.6 903.598C1527.2 920 1500.8 920 1448 920H152C99.2027 920 72.804 920 56.402 903.598C40 887.196 40 860.797 40 808V152Z" fill="white"/>
<path d="M152 40.5H1448C1474.41 40.5 1494.17 40.5011 1509.38 42.5458C1524.57 44.5886 1535.15 48.6629 1543.24 56.7556C1551.34 64.8482 1555.41 75.4253 1557.45 90.6194C1559.5 105.828 1559.5 125.587 1559.5 152V808C1559.5 834.413 1559.5 854.172 1557.45 869.381C1555.41 884.575 1551.34 895.152 1543.24 903.244C1535.15 911.337 1524.57 915.411 1509.38 917.454C1494.17 919.499 1474.41 919.5 1448 919.5H152C125.587 919.5 105.828 919.499 90.6194 917.454C75.4253 915.411 64.8482 911.337 56.7556 903.244C48.6629 895.152 44.5886 884.575 42.5458 869.381C40.5011 854.172 40.5 834.413 40.5 808V152C40.5 125.587 40.5011 105.828 42.5458 90.6194C44.5886 75.4253 48.6629 64.8482 56.7556 56.7556C64.8482 48.6629 75.4253 44.5886 90.6194 42.5458C105.828 40.5011 125.587 40.5 152 40.5Z" stroke="#CECECE"/>
</g>
<path d="M250.08 770.48C248.027 770.48 246.227 770.12 244.68 769.4C243.133 768.68 241.92 767.653 241.04 766.32C240.187 764.987 239.747 763.4 239.72 761.56H244.2C244.227 763.053 244.747 764.32 245.76 765.36C246.773 766.4 248.2 766.92 250.04 766.92C251.667 766.92 252.933 766.533 253.84 765.76C254.773 764.96 255.24 763.947 255.24 762.72C255.24 761.733 255.013 760.933 254.56 760.32C254.133 759.707 253.533 759.2 252.76 758.8C252.013 758.4 251.147 758.04 250.16 757.72C249.173 757.4 248.133 757.053 247.04 756.68C244.88 755.96 243.253 755.027 242.16 753.88C241.093 752.733 240.56 751.227 240.56 749.36C240.533 747.787 240.893 746.413 241.64 745.24C242.413 744.067 243.48 743.16 244.84 742.52C246.227 741.853 247.84 741.52 249.68 741.52C251.493 741.52 253.08 741.853 254.44 742.52C255.827 743.187 256.907 744.12 257.68 745.32C258.453 746.493 258.853 747.867 258.88 749.44H254.4C254.4 748.72 254.213 748.04 253.84 747.4C253.467 746.733 252.92 746.187 252.2 745.76C251.48 745.333 250.6 745.12 249.56 745.12C248.227 745.093 247.12 745.427 246.24 746.12C245.387 746.813 244.96 747.773 244.96 749C244.96 750.093 245.28 750.933 245.92 751.52C246.56 752.107 247.44 752.6 248.56 753C249.68 753.373 250.96 753.813 252.4 754.32C253.787 754.773 255.027 755.32 256.12 755.96C257.213 756.6 258.08 757.44 258.72 758.48C259.387 759.52 259.72 760.84 259.72 762.44C259.72 763.853 259.36 765.173 258.64 766.4C257.92 767.6 256.84 768.587 255.4 769.36C253.96 770.107 252.187 770.48 250.08 770.48ZM270.408 770V745.44H262.128V742H282.888V745.44H274.648V770H270.408ZM282.009 770L292.329 742H296.969L307.209 770H302.729L300.329 763.16H288.889L286.489 770H282.009ZM290.089 759.8H299.129L294.609 747.04L290.089 759.8ZM311.113 770V742H320.753C322.967 742 324.78 742.373 326.193 743.12C327.633 743.867 328.7 744.88 329.393 746.16C330.087 747.413 330.433 748.813 330.433 750.36C330.433 752.093 329.967 753.667 329.033 755.08C328.127 756.493 326.7 757.507 324.753 758.12L330.713 770H325.793L320.353 758.72H315.353V770H311.113ZM315.353 755.52H320.513C322.433 755.52 323.833 755.053 324.713 754.12C325.62 753.187 326.073 751.973 326.073 750.48C326.073 748.987 325.633 747.8 324.753 746.92C323.873 746.013 322.447 745.56 320.473 745.56H315.353V755.52ZM342.009 770V745.44H333.729V742H354.489V745.44H346.249V770H342.009ZM358.457 770V742H376.257V745.44H362.697V754.16H375.057V757.52H362.697V766.56H376.257V770H358.457ZM381.309 770V742H390.389C393.669 742 396.362 742.573 398.469 743.72C400.602 744.867 402.175 746.493 403.189 748.6C404.229 750.68 404.749 753.16 404.749 756.04C404.749 758.893 404.229 761.373 403.189 763.48C402.175 765.56 400.602 767.173 398.469 768.32C396.362 769.44 393.669 770 390.389 770H381.309ZM385.549 766.4H390.229C392.762 766.4 394.762 765.987 396.229 765.16C397.722 764.333 398.789 763.147 399.429 761.6C400.095 760.053 400.429 758.2 400.429 756.04C400.429 753.88 400.095 752.013 399.429 750.44C398.789 748.867 397.722 747.667 396.229 746.84C394.762 745.987 392.762 745.56 390.229 745.56H385.549V766.4Z" fill="#7B8289"/>
<path d="M257.88 841.672C254.259 841.672 251.16 840.832 248.584 839.152C246.008 837.435 244.011 835.064 242.592 832.04C241.211 828.979 240.52 825.432 240.52 821.4C240.52 817.405 241.211 813.877 242.592 810.816C244.011 807.755 246.008 805.384 248.584 803.704C251.16 801.987 254.259 801.128 257.88 801.128C261.501 801.128 264.6 801.987 267.176 803.704C269.752 805.384 271.731 807.755 273.112 810.816C274.531 813.877 275.24 817.405 275.24 821.4C275.24 825.432 274.531 828.979 273.112 832.04C271.731 835.064 269.752 837.435 267.176 839.152C264.6 840.832 261.501 841.672 257.88 841.672ZM257.88 835.232C260.829 835.232 263.237 834 265.104 831.536C266.971 829.072 267.904 825.693 267.904 821.4C267.904 817.107 266.971 813.728 265.104 811.264C263.237 808.8 260.829 807.568 257.88 807.568C254.893 807.568 252.467 808.8 250.6 811.264C248.771 813.728 247.856 817.107 247.856 821.4C247.856 825.693 248.771 829.072 250.6 831.536C252.467 834 254.893 835.232 257.88 835.232ZM280.34 841V835.792C282.73 833.813 285.044 831.853 287.284 829.912C289.562 827.971 291.578 826.048 293.332 824.144C295.124 822.24 296.543 820.392 297.588 818.6C298.671 816.771 299.212 814.997 299.212 813.28C299.212 811.675 298.764 810.256 297.868 809.024C297.01 807.792 295.572 807.176 293.556 807.176C291.503 807.176 289.954 807.848 288.908 809.192C287.863 810.536 287.34 812.16 287.34 814.064H280.396C280.471 811.189 281.106 808.8 282.3 806.896C283.495 804.955 285.082 803.517 287.06 802.584C289.039 801.613 291.26 801.128 293.724 801.128C297.719 801.128 300.818 802.229 303.02 804.432C305.26 806.597 306.38 809.416 306.38 812.888C306.38 815.053 305.876 817.163 304.868 819.216C303.898 821.269 302.61 823.248 301.004 825.152C299.399 827.056 297.663 828.848 295.796 830.528C293.93 832.171 292.119 833.701 290.364 835.12H307.332V841H280.34ZM310.765 847.216L324.765 797.488H331.765L317.709 847.216H310.765ZM351.833 841.672C348.212 841.672 345.113 840.832 342.537 839.152C339.961 837.435 337.964 835.064 336.545 832.04C335.164 828.979 334.473 825.432 334.473 821.4C334.473 817.405 335.164 813.877 336.545 810.816C337.964 807.755 339.961 805.384 342.537 803.704C345.113 801.987 348.212 801.128 351.833 801.128C355.454 801.128 358.553 801.987 361.129 803.704C363.705 805.384 365.684 807.755 367.065 810.816C368.484 813.877 369.193 817.405 369.193 821.4C369.193 825.432 368.484 828.979 367.065 832.04C365.684 835.064 363.705 837.435 361.129 839.152C358.553 840.832 355.454 841.672 351.833 841.672ZM351.833 835.232C354.782 835.232 357.19 834 359.057 831.536C360.924 829.072 361.857 825.693 361.857 821.4C361.857 817.107 360.924 813.728 359.057 811.264C357.19 808.8 354.782 807.568 351.833 807.568C348.846 807.568 346.42 808.8 344.553 811.264C342.724 813.728 341.809 817.107 341.809 821.4C341.809 825.693 342.724 829.072 344.553 831.536C346.42 834 348.846 835.232 351.833 835.232ZM377.376 841L392.16 807.904H372.84V801.8H399.552V806.896L384.824 841H377.376ZM398.101 847.216L412.101 797.488H419.101L405.044 847.216H398.101ZM423.239 841V835.792C425.628 833.813 427.943 831.853 430.183 829.912C432.46 827.971 434.476 826.048 436.231 824.144C438.023 822.24 439.441 820.392 440.487 818.6C441.569 816.771 442.111 814.997 442.111 813.28C442.111 811.675 441.663 810.256 440.767 809.024C439.908 807.792 438.471 807.176 436.455 807.176C434.401 807.176 432.852 807.848 431.807 809.192C430.761 810.536 430.239 812.16 430.239 814.064H423.295C423.369 811.189 424.004 808.8 425.199 806.896C426.393 804.955 427.98 803.517 429.959 802.584C431.937 801.613 434.159 801.128 436.623 801.128C440.617 801.128 443.716 802.229 445.919 804.432C448.159 806.597 449.279 809.416 449.279 812.888C449.279 815.053 448.775 817.163 447.767 819.216C446.796 821.269 445.508 823.248 443.903 825.152C442.297 827.056 440.561 828.848 438.695 830.528C436.828 832.171 435.017 833.701 433.263 835.12H450.231V841H423.239ZM471.982 841.672C468.36 841.672 465.262 840.832 462.686 839.152C460.11 837.435 458.112 835.064 456.694 832.04C455.312 828.979 454.622 825.432 454.622 821.4C454.622 817.405 455.312 813.877 456.694 810.816C458.112 807.755 460.11 805.384 462.686 803.704C465.262 801.987 468.36 801.128 471.982 801.128C475.603 801.128 478.702 801.987 481.278 803.704C483.854 805.384 485.832 807.755 487.214 810.816C488.632 813.877 489.342 817.405 489.342 821.4C489.342 825.432 488.632 828.979 487.214 832.04C485.832 835.064 483.854 837.435 481.278 839.152C478.702 840.832 475.603 841.672 471.982 841.672ZM471.982 835.232C474.931 835.232 477.339 834 479.206 831.536C481.072 829.072 482.006 825.693 482.006 821.4C482.006 817.107 481.072 813.728 479.206 811.264C477.339 808.8 474.931 807.568 471.982 807.568C468.995 807.568 466.568 808.8 464.702 811.264C462.872 813.728 461.958 817.107 461.958 821.4C461.958 825.693 462.872 829.072 464.702 831.536C466.568 834 468.995 835.232 471.982 835.232ZM494.442 841V835.792C496.831 833.813 499.146 831.853 501.386 829.912C503.663 827.971 505.679 826.048 507.434 824.144C509.226 822.24 510.645 820.392 511.69 818.6C512.773 816.771 513.314 814.997 513.314 813.28C513.314 811.675 512.866 810.256 511.97 809.024C511.111 807.792 509.674 807.176 507.658 807.176C505.605 807.176 504.055 807.848 503.01 809.192C501.965 810.536 501.442 812.16 501.442 814.064H494.498C494.573 811.189 495.207 808.8 496.402 806.896C497.597 804.955 499.183 803.517 501.162 802.584C503.141 801.613 505.362 801.128 507.826 801.128C511.821 801.128 514.919 802.229 517.122 804.432C519.362 806.597 520.482 809.416 520.482 812.888C520.482 815.053 519.978 817.163 518.97 819.216C517.999 821.269 516.711 823.248 515.106 825.152C513.501 827.056 511.765 828.848 509.898 830.528C508.031 832.171 506.221 833.701 504.466 835.12H521.434V841H494.442ZM526.434 841V835.792C528.823 833.813 531.138 831.853 533.378 829.912C535.655 827.971 537.671 826.048 539.426 824.144C541.218 822.24 542.637 820.392 543.682 818.6C544.765 816.771 545.306 814.997 545.306 813.28C545.306 811.675 544.858 810.256 543.962 809.024C543.103 807.792 541.666 807.176 539.65 807.176C537.597 807.176 536.047 807.848 535.002 809.192C533.957 810.536 533.434 812.16 533.434 814.064H526.49C526.565 811.189 527.199 808.8 528.394 806.896C529.589 804.955 531.175 803.517 533.154 802.584C535.133 801.613 537.354 801.128 539.818 801.128C543.813 801.128 546.911 802.229 549.114 804.432C551.354 806.597 552.474 809.416 552.474 812.888C552.474 815.053 551.97 817.163 550.962 819.216C549.991 821.269 548.703 823.248 547.098 825.152C545.493 827.056 543.757 828.848 541.89 830.528C540.023 832.171 538.213 833.701 536.458 835.12H553.426V841H526.434Z" fill="#232535"/>
<g clip-path="url(#clip1_302_322)">
<path d="M350.035 222.872C351.214 214.947 390.569 212.959 392.781 212.959C399.304 212.959 408.337 212.424 400.015 209.998C392.497 207.125 386.161 201.802 382.024 194.885C375.743 193.006 370.455 188.719 367.308 182.956C358.483 181.873 345.994 176.012 342.793 171.953C317.862 170.419 293.325 164.972 270.079 155.811C261.278 152.169 235.452 134.757 238.201 133.828C246.633 130.985 266.591 136.457 275.805 137.438C296.255 139.634 316.861 139.276 337.464 139.91C339.82 139.981 342.405 139.91 345.122 139.851C355.023 139.615 366.542 139.375 373.599 145.756C383.441 154.681 420.217 202.204 429.623 196.704C431.677 195.499 427.624 193.653 422.993 192.192C422.75 192.091 422.545 191.915 422.409 191.689C422.272 191.464 422.21 191.2 422.232 190.937C422.255 190.674 422.36 190.426 422.533 190.227C422.706 190.027 422.937 189.889 423.194 189.83C443.616 185.106 454.95 197.373 480.686 200.794C501.772 203.601 504.215 215.25 500.774 226.939C498.292 235.344 503.358 240.123 500.735 245.962C499.388 249.001 497.57 246.411 497.251 245.517C492.358 231.513 485.897 216.723 459.796 225.577C451.015 229.273 441.669 231.441 432.16 231.986C426.728 232.107 421.298 231.656 415.96 230.64C409.858 229.214 403.544 228.946 397.344 229.852C390.95 231.033 387.981 246.06 379.585 252.544C379.06 252.884 378.44 253.044 377.817 253.001C370.579 252.993 348.897 239.765 350.035 222.872ZM444.028 186.298C456.56 174.551 470.318 157.268 481.687 145.749C487.928 139.45 500.004 139.655 510.196 139.843C512.945 139.899 515.533 139.954 517.846 139.883C538.394 139.249 559.036 139.607 579.474 137.418C588.66 136.438 608.646 130.958 617.082 133.808C619.831 134.737 594.005 152.146 585.2 155.791C561.956 164.952 537.422 170.399 512.493 171.933C511.256 174.523 497.962 181.933 487.975 182.929C487.975 182.929 482.304 193.164 473.354 194.739C473.094 194.782 472.831 194.802 472.568 194.798C467.565 194.81 454.495 189.145 444.028 186.298Z" fill="#2E445C"/>
</g>
<path d="M241.036 412L274.828 319.6H293.836L327.628 412H309.676L302.284 390.616H266.248L258.724 412H241.036ZM270.868 377.416H297.664L284.2 339.004L270.868 377.416ZM366.195 413.584C360.387 413.584 355.283 412.66 350.883 410.812C346.483 408.876 342.963 406.236 340.323 402.892C337.683 399.548 336.099 395.676 335.571 391.276H352.599C353.127 393.828 354.535 396.028 356.823 397.876C359.199 399.636 362.235 400.516 365.931 400.516C369.627 400.516 372.311 399.768 373.983 398.272C375.743 396.776 376.623 395.06 376.623 393.124C376.623 390.308 375.391 388.416 372.927 387.448C370.463 386.392 367.031 385.38 362.631 384.412C359.815 383.796 356.955 383.048 354.051 382.168C351.147 381.288 348.463 380.188 345.999 378.868C343.623 377.46 341.687 375.7 340.191 373.588C338.695 371.388 337.947 368.704 337.947 365.536C337.947 359.728 340.235 354.844 344.811 350.884C349.475 346.924 355.987 344.944 364.347 344.944C372.091 344.944 378.251 346.748 382.827 350.356C387.491 353.964 390.263 358.936 391.143 365.272H375.171C374.203 360.432 370.551 358.012 364.215 358.012C361.047 358.012 358.583 358.628 356.823 359.86C355.151 361.092 354.315 362.632 354.315 364.48C354.315 366.416 355.591 367.956 358.143 369.1C360.695 370.244 364.083 371.3 368.307 372.268C372.883 373.324 377.063 374.512 380.847 375.832C384.719 377.064 387.799 378.956 390.087 381.508C392.375 383.972 393.519 387.536 393.519 392.2C393.607 396.248 392.551 399.9 390.351 403.156C388.151 406.412 384.983 408.964 380.847 410.812C376.711 412.66 371.827 413.584 366.195 413.584ZM435.546 413.584C429.738 413.584 424.634 412.66 420.234 410.812C415.834 408.876 412.314 406.236 409.674 402.892C407.034 399.548 405.45 395.676 404.922 391.276H421.95C422.478 393.828 423.886 396.028 426.174 397.876C428.55 399.636 431.586 400.516 435.282 400.516C438.978 400.516 441.662 399.768 443.334 398.272C445.094 396.776 445.974 395.06 445.974 393.124C445.974 390.308 444.742 388.416 442.278 387.448C439.814 386.392 436.382 385.38 431.982 384.412C429.166 383.796 426.306 383.048 423.402 382.168C420.498 381.288 417.814 380.188 415.35 378.868C412.974 377.46 411.038 375.7 409.542 373.588C408.046 371.388 407.298 368.704 407.298 365.536C407.298 359.728 409.586 354.844 414.162 350.884C418.826 346.924 425.338 344.944 433.698 344.944C441.442 344.944 447.602 346.748 452.178 350.356C456.842 353.964 459.614 358.936 460.494 365.272H444.522C443.554 360.432 439.902 358.012 433.566 358.012C430.398 358.012 427.934 358.628 426.174 359.86C424.502 361.092 423.666 362.632 423.666 364.48C423.666 366.416 424.942 367.956 427.494 369.1C430.046 370.244 433.434 371.3 437.658 372.268C442.234 373.324 446.414 374.512 450.198 375.832C454.07 377.064 457.15 378.956 459.438 381.508C461.726 383.972 462.87 387.536 462.87 392.2C462.958 396.248 461.902 399.9 459.702 403.156C457.502 406.412 454.334 408.964 450.198 410.812C446.062 412.66 441.178 413.584 435.546 413.584ZM486.946 336.364C483.866 336.364 481.314 335.44 479.29 333.592C477.354 331.744 476.386 329.412 476.386 326.596C476.386 323.78 477.354 321.492 479.29 319.732C481.314 317.884 483.866 316.96 486.946 316.96C490.026 316.96 492.534 317.884 494.47 319.732C496.494 321.492 497.506 323.78 497.506 326.596C497.506 329.412 496.494 331.744 494.47 333.592C492.534 335.44 490.026 336.364 486.946 336.364ZM478.498 412V346.528H495.394V412H478.498ZM540.749 392.464C537.581 392.464 534.633 392.112 531.905 391.408L527.021 396.292C528.517 397.084 530.541 397.744 533.093 398.272C535.645 398.8 539.781 399.328 545.501 399.856C554.213 400.648 560.549 402.716 564.509 406.06C568.469 409.404 570.449 414.024 570.449 419.92C570.449 423.792 569.393 427.444 567.281 430.876C565.169 434.396 561.913 437.212 557.513 439.324C553.113 441.524 547.481 442.624 540.617 442.624C531.289 442.624 523.765 440.864 518.045 437.344C512.325 433.912 509.465 428.72 509.465 421.768C509.465 415.872 512.325 410.768 518.045 406.456C516.285 405.664 514.745 404.828 513.425 403.948C512.193 403.068 511.093 402.144 510.125 401.176V398.14L521.609 385.996C516.505 381.508 513.953 375.744 513.953 368.704C513.953 364.304 515.009 360.3 517.121 356.692C519.321 353.084 522.401 350.224 526.361 348.112C530.321 346 535.117 344.944 540.749 344.944C544.445 344.944 547.877 345.472 551.045 346.528H575.861V356.824L564.641 357.616C566.401 360.96 567.281 364.656 567.281 368.704C567.281 373.104 566.225 377.108 564.113 380.716C562.001 384.324 558.921 387.184 554.873 389.296C550.913 391.408 546.205 392.464 540.749 392.464ZM540.749 379.528C544.181 379.528 546.997 378.604 549.197 376.756C551.485 374.908 552.629 372.268 552.629 368.836C552.629 365.404 551.485 362.764 549.197 360.916C546.997 359.068 544.181 358.144 540.749 358.144C537.141 358.144 534.237 359.068 532.037 360.916C529.837 362.764 528.737 365.404 528.737 368.836C528.737 372.268 529.837 374.908 532.037 376.756C534.237 378.604 537.141 379.528 540.749 379.528ZM524.909 420.052C524.909 423.308 526.405 425.728 529.397 427.312C532.477 428.984 536.217 429.82 540.617 429.82C544.841 429.82 548.273 428.94 550.913 427.18C553.553 425.508 554.873 423.22 554.873 420.316C554.873 417.94 553.993 415.96 552.233 414.376C550.561 412.792 547.173 411.824 542.069 411.472C538.461 411.208 535.117 410.812 532.037 410.284C529.485 411.692 527.637 413.232 526.493 414.904C525.437 416.576 524.909 418.292 524.909 420.052ZM588.182 412V346.528H603.098L604.418 357.616C606.442 353.744 609.346 350.664 613.13 348.376C617.002 346.088 621.534 344.944 626.726 344.944C634.822 344.944 641.114 347.496 645.602 352.6C650.09 357.704 652.334 365.184 652.334 375.04V412H635.438V376.624C635.438 370.992 634.294 366.68 632.006 363.688C629.718 360.696 626.154 359.2 621.314 359.2C616.562 359.2 612.646 360.872 609.566 364.216C606.574 367.56 605.078 372.224 605.078 378.208V412H588.182ZM691.062 413.584C685.43 413.584 680.81 412.704 677.202 410.944C673.594 409.096 670.91 406.676 669.15 403.684C667.39 400.692 666.51 397.392 666.51 393.784C666.51 387.712 668.886 382.784 673.638 379C678.39 375.216 685.518 373.324 695.022 373.324H711.654V371.74C711.654 367.252 710.378 363.952 707.826 361.84C705.274 359.728 702.106 358.672 698.322 358.672C694.89 358.672 691.898 359.508 689.346 361.18C686.794 362.764 685.21 365.14 684.594 368.308H668.094C668.534 363.556 670.118 359.42 672.846 355.9C675.662 352.38 679.27 349.696 683.67 347.848C688.07 345.912 692.998 344.944 698.454 344.944C707.782 344.944 715.13 347.276 720.498 351.94C725.866 356.604 728.55 363.204 728.55 371.74V412H714.162L712.578 401.44C710.642 404.96 707.914 407.864 704.394 410.152C700.962 412.44 696.518 413.584 691.062 413.584ZM694.89 400.384C699.73 400.384 703.47 398.8 706.11 395.632C708.838 392.464 710.554 388.548 711.258 383.884H696.87C692.382 383.884 689.17 384.72 687.234 386.392C685.298 387.976 684.33 389.956 684.33 392.332C684.33 394.884 685.298 396.864 687.234 398.272C689.17 399.68 691.722 400.384 694.89 400.384ZM783.482 413.584C778.554 413.584 774.242 412.66 770.546 410.812C766.85 408.964 763.858 406.368 761.57 403.024L759.722 412H744.674V316.96H761.57V355.9C763.682 352.996 766.454 350.444 769.886 348.244C773.406 346.044 777.938 344.944 783.482 344.944C789.642 344.944 795.142 346.44 799.982 349.432C804.822 352.424 808.65 356.516 811.466 361.708C814.282 366.9 815.69 372.796 815.69 379.396C815.69 385.996 814.282 391.892 811.466 397.084C808.65 402.188 804.822 406.236 799.982 409.228C795.142 412.132 789.642 413.584 783.482 413.584ZM779.918 398.8C785.286 398.8 789.73 396.996 793.25 393.388C796.77 389.78 798.53 385.116 798.53 379.396C798.53 373.676 796.77 368.968 793.25 365.272C789.73 361.576 785.286 359.728 779.918 359.728C774.462 359.728 769.974 361.576 766.454 365.272C763.022 368.88 761.306 373.544 761.306 379.264C761.306 384.984 763.022 389.692 766.454 393.388C769.974 396.996 774.462 398.8 779.918 398.8ZM830.783 412V316.96H847.679V412H830.783ZM896.755 413.584C890.155 413.584 884.303 412.176 879.199 409.36C874.095 406.544 870.091 402.584 867.187 397.48C864.283 392.376 862.831 386.48 862.831 379.792C862.831 373.016 864.239 366.988 867.055 361.708C869.959 356.428 873.919 352.336 878.935 349.432C884.039 346.44 890.023 344.944 896.887 344.944C903.311 344.944 908.987 346.352 913.915 349.168C918.843 351.984 922.671 355.856 925.399 360.784C928.215 365.624 929.623 371.036 929.623 377.02C929.623 377.988 929.579 379 929.491 380.056C929.491 381.112 929.447 382.212 929.359 383.356H879.595C879.947 388.46 881.707 392.464 884.875 395.368C888.131 398.272 892.047 399.724 896.623 399.724C900.055 399.724 902.915 398.976 905.203 397.48C907.579 395.896 909.339 393.872 910.483 391.408H927.643C926.411 395.544 924.343 399.328 921.439 402.76C918.623 406.104 915.103 408.744 910.879 410.68C906.743 412.616 902.035 413.584 896.755 413.584ZM896.887 358.672C892.751 358.672 889.099 359.86 885.931 362.236C882.763 364.524 880.739 368.044 879.859 372.796H912.463C912.199 368.484 910.615 365.052 907.711 362.5C904.807 359.948 901.199 358.672 896.887 358.672ZM975.683 412V319.6H1036.01V333.196H992.579V358.54H1032.05V371.74H992.579V398.404H1036.01V412H975.683ZM1090.41 413.584C1085.48 413.584 1081.17 412.66 1077.47 410.812C1073.78 408.964 1070.78 406.368 1068.5 403.024L1066.65 412H1051.6V316.96H1068.5V355.9C1070.61 352.996 1073.38 350.444 1076.81 348.244C1080.33 346.044 1084.86 344.944 1090.41 344.944C1096.57 344.944 1102.07 346.44 1106.91 349.432C1111.75 352.424 1115.58 356.516 1118.39 361.708C1121.21 366.9 1122.62 372.796 1122.62 379.396C1122.62 385.996 1121.21 391.892 1118.39 397.084C1115.58 402.188 1111.75 406.236 1106.91 409.228C1102.07 412.132 1096.57 413.584 1090.41 413.584ZM1086.84 398.8C1092.21 398.8 1096.66 396.996 1100.18 393.388C1103.7 389.78 1105.46 385.116 1105.46 379.396C1105.46 373.676 1103.7 368.968 1100.18 365.272C1096.66 361.576 1092.21 359.728 1086.84 359.728C1081.39 359.728 1076.9 361.576 1073.38 365.272C1069.95 368.88 1068.23 373.544 1068.23 379.264C1068.23 384.984 1069.95 389.692 1073.38 393.388C1076.9 396.996 1081.39 398.8 1086.84 398.8ZM1169.12 413.584C1162.79 413.584 1157.07 412.132 1151.96 409.228C1146.95 406.324 1142.94 402.32 1139.95 397.216C1137.05 392.024 1135.6 386.04 1135.6 379.264C1135.6 372.488 1137.09 366.548 1140.08 361.444C1143.08 356.252 1147.08 352.204 1152.1 349.3C1157.2 346.396 1162.92 344.944 1169.26 344.944C1175.5 344.944 1181.14 346.396 1186.15 349.3C1191.26 352.204 1195.26 356.252 1198.16 361.444C1201.16 366.548 1202.65 372.488 1202.65 379.264C1202.65 386.04 1201.16 392.024 1198.16 397.216C1195.26 402.32 1191.26 406.324 1186.15 409.228C1181.05 412.132 1175.37 413.584 1169.12 413.584ZM1169.12 398.932C1173.52 398.932 1177.35 397.304 1180.61 394.048C1183.86 390.704 1185.49 385.776 1185.49 379.264C1185.49 372.752 1183.86 367.868 1180.61 364.612C1177.35 361.268 1173.57 359.596 1169.26 359.596C1164.77 359.596 1160.9 361.268 1157.64 364.612C1154.47 367.868 1152.89 372.752 1152.89 379.264C1152.89 385.776 1154.47 390.704 1157.64 394.048C1160.9 397.304 1164.72 398.932 1169.12 398.932ZM1249.18 413.584C1242.84 413.584 1237.12 412.132 1232.02 409.228C1227 406.324 1223 402.32 1220 397.216C1217.1 392.024 1215.65 386.04 1215.65 379.264C1215.65 372.488 1217.14 366.548 1220.14 361.444C1223.13 356.252 1227.13 352.204 1232.15 349.3C1237.25 346.396 1242.97 344.944 1249.31 344.944C1255.56 344.944 1261.19 346.396 1266.2 349.3C1271.31 352.204 1275.31 356.252 1278.22 361.444C1281.21 366.548 1282.7 372.488 1282.7 379.264C1282.7 386.04 1281.21 392.024 1278.22 397.216C1275.31 402.32 1271.31 406.324 1266.2 409.228C1261.1 412.132 1255.42 413.584 1249.18 413.584ZM1249.18 398.932C1253.58 398.932 1257.4 397.304 1260.66 394.048C1263.92 390.704 1265.54 385.776 1265.54 379.264C1265.54 372.752 1263.92 367.868 1260.66 364.612C1257.4 361.268 1253.62 359.596 1249.31 359.596C1244.82 359.596 1240.95 361.268 1237.69 364.612C1234.52 367.868 1232.94 372.752 1232.94 379.264C1232.94 385.776 1234.52 390.704 1237.69 394.048C1240.95 397.304 1244.78 398.932 1249.18 398.932ZM1297.81 412V316.96H1314.71V373.06L1337.94 346.528H1358L1331.21 376.36L1362.36 412H1341.24L1314.71 379.132V412H1297.81Z" fill="black"/>
<path d="M242.544 543V498.2H257.968C261.509 498.2 264.411 498.797 266.672 499.992C268.976 501.187 270.683 502.808 271.792 504.856C272.901 506.861 273.456 509.101 273.456 511.576C273.456 514.349 272.709 516.867 271.216 519.128C269.765 521.389 267.483 523.011 264.368 523.992L273.904 543H266.032L257.328 524.952H249.328V543H242.544ZM249.328 519.832H257.584C260.656 519.832 262.896 519.085 264.304 517.592C265.755 516.099 266.48 514.157 266.48 511.768C266.48 509.379 265.776 507.48 264.368 506.072C262.96 504.621 260.677 503.896 257.52 503.896H249.328V519.832ZM294.136 543.768C291.107 543.768 288.376 543.085 285.944 541.72C283.555 540.312 281.656 538.371 280.248 535.896C278.84 533.379 278.136 530.456 278.136 527.128C278.136 523.8 278.84 520.899 280.248 518.424C281.699 515.907 283.64 513.965 286.072 512.6C288.504 511.192 291.213 510.488 294.2 510.488C297.229 510.488 299.939 511.192 302.328 512.6C304.76 513.965 306.68 515.907 308.088 518.424C309.539 520.899 310.264 523.8 310.264 527.128C310.264 530.456 309.539 533.379 308.088 535.896C306.68 538.371 304.76 540.312 302.328 541.72C299.896 543.085 297.165 543.768 294.136 543.768ZM294.136 537.944C295.757 537.944 297.251 537.539 298.616 536.728C300.024 535.917 301.155 534.723 302.008 533.144C302.861 531.523 303.288 529.517 303.288 527.128C303.288 524.739 302.861 522.755 302.008 521.176C301.197 519.555 300.088 518.339 298.68 517.528C297.315 516.717 295.821 516.312 294.2 516.312C292.579 516.312 291.064 516.717 289.656 517.528C288.291 518.339 287.181 519.555 286.328 521.176C285.475 522.755 285.048 524.739 285.048 527.128C285.048 529.517 285.475 531.523 286.328 533.144C287.181 534.723 288.291 535.917 289.656 536.728C291.021 537.539 292.515 537.944 294.136 537.944ZM317.601 543V496.92H324.385V543H317.601ZM347.824 543.768C344.709 543.768 341.936 543.085 339.504 541.72C337.114 540.312 335.237 538.371 333.872 535.896C332.506 533.421 331.824 530.541 331.824 527.256C331.824 523.928 332.485 521.005 333.808 518.488C335.173 515.971 337.05 514.008 339.44 512.6C341.872 511.192 344.688 510.488 347.888 510.488C351.002 510.488 353.712 511.192 356.016 512.6C358.32 513.965 360.112 515.8 361.392 518.104C362.672 520.408 363.312 522.947 363.312 525.72C363.312 526.147 363.29 526.616 363.248 527.128C363.248 527.597 363.226 528.131 363.184 528.728H338.48C338.693 531.8 339.696 534.147 341.488 535.768C343.322 537.347 345.434 538.136 347.824 538.136C349.744 538.136 351.344 537.709 352.624 536.856C353.946 535.96 354.928 534.765 355.568 533.272H362.352C361.498 536.259 359.792 538.755 357.232 540.76C354.714 542.765 351.578 543.768 347.824 543.768ZM347.824 516.056C345.562 516.056 343.557 516.739 341.808 518.104C340.058 519.427 338.992 521.432 338.608 524.12H356.528C356.4 521.645 355.525 519.683 353.904 518.232C352.282 516.781 350.256 516.056 347.824 516.056ZM373.039 543.384C371.759 543.384 370.692 542.979 369.839 542.168C369.028 541.315 368.623 540.312 368.623 539.16C368.623 537.965 369.028 536.963 369.839 536.152C370.692 535.299 371.759 534.872 373.039 534.872C374.319 534.872 375.364 535.299 376.175 536.152C376.985 536.963 377.391 537.965 377.391 539.16C377.391 540.312 376.985 541.315 376.175 542.168C375.364 542.979 374.319 543.384 373.039 543.384ZM373.039 519C371.759 519 370.692 518.595 369.839 517.784C369.028 516.931 368.623 515.928 368.623 514.776C368.623 513.581 369.028 512.579 369.839 511.768C370.692 510.915 371.759 510.488 373.039 510.488C374.319 510.488 375.364 510.915 376.175 511.768C376.985 512.579 377.391 513.581 377.391 514.776C377.391 515.928 376.985 516.931 376.175 517.784C375.364 518.595 374.319 519 373.039 519ZM417.562 543.768C414.362 543.768 411.461 543.149 408.858 541.912C406.298 540.632 404.25 538.691 402.714 536.088C401.221 533.485 400.474 530.179 400.474 526.168V498.2H407.258V526.232C407.258 530.157 408.197 533.037 410.074 534.872C411.951 536.707 414.49 537.624 417.69 537.624C420.847 537.624 423.365 536.707 425.242 534.872C427.119 533.037 428.058 530.157 428.058 526.232V498.2H434.842V526.168C434.842 530.179 434.053 533.485 432.474 536.088C430.938 538.691 428.847 540.632 426.202 541.912C423.599 543.149 420.719 543.768 417.562 543.768ZM443.544 543V498.2H450.328V543H443.544ZM456.539 549.592L472.539 493.656H479.195L463.131 549.592H456.539ZM502.187 543.768C498.987 543.768 496.086 543.149 493.483 541.912C490.923 540.632 488.875 538.691 487.339 536.088C485.846 533.485 485.099 530.179 485.099 526.168V498.2H491.883V526.232C491.883 530.157 492.822 533.037 494.699 534.872C496.576 536.707 499.115 537.624 502.315 537.624C505.472 537.624 507.99 536.707 509.867 534.872C511.744 533.037 512.683 530.157 512.683 526.232V498.2H519.467V526.168C519.467 530.179 518.678 533.485 517.099 536.088C515.563 538.691 513.472 540.632 510.827 541.912C508.224 543.149 505.344 543.768 502.187 543.768ZM525.929 543L539.753 520.344L525.801 498.2H533.545L544.105 514.968L553.961 498.2H561.577L547.689 520.664L561.769 543H554.025L543.401 526.104L533.545 543H525.929ZM598.877 543.768C595.805 543.768 593.096 543.043 590.749 541.592C588.402 540.141 586.568 538.157 585.245 535.64C583.922 533.123 583.261 530.264 583.261 527.064C583.261 523.864 583.922 521.027 585.245 518.552C586.568 516.035 588.402 514.072 590.749 512.664C593.138 511.213 595.869 510.488 598.941 510.488C601.458 510.488 603.656 510.979 605.533 511.96C607.453 512.941 608.946 514.328 610.013 516.12V496.92H616.797V543H610.717L610.013 538.072C608.989 539.565 607.581 540.888 605.789 542.04C603.997 543.192 601.693 543.768 598.877 543.768ZM600.093 537.88C602.994 537.88 605.362 536.877 607.197 534.872C609.074 532.867 610.013 530.285 610.013 527.128C610.013 523.928 609.074 521.347 607.197 519.384C605.362 517.379 602.994 516.376 600.093 516.376C597.192 516.376 594.802 517.379 592.925 519.384C591.048 521.347 590.109 523.928 590.109 527.128C590.109 529.219 590.536 531.075 591.389 532.696C592.242 534.317 593.416 535.597 594.909 536.536C596.445 537.432 598.173 537.88 600.093 537.88ZM640.199 543.768C637.084 543.768 634.311 543.085 631.879 541.72C629.489 540.312 627.612 538.371 626.247 535.896C624.881 533.421 624.199 530.541 624.199 527.256C624.199 523.928 624.86 521.005 626.183 518.488C627.548 515.971 629.425 514.008 631.815 512.6C634.247 511.192 637.063 510.488 640.263 510.488C643.377 510.488 646.087 511.192 648.391 512.6C650.695 513.965 652.487 515.8 653.767 518.104C655.047 520.408 655.687 522.947 655.687 525.72C655.687 526.147 655.665 526.616 655.623 527.128C655.623 527.597 655.601 528.131 655.559 528.728H630.855C631.068 531.8 632.071 534.147 633.863 535.768C635.697 537.347 637.809 538.136 640.199 538.136C642.119 538.136 643.719 537.709 644.999 536.856C646.321 535.96 647.303 534.765 647.943 533.272H654.727C653.873 536.259 652.167 538.755 649.607 540.76C647.089 542.765 643.953 543.768 640.199 543.768ZM640.199 516.056C637.937 516.056 635.932 516.739 634.183 518.104C632.433 519.427 631.367 521.432 630.983 524.12H648.903C648.775 521.645 647.9 519.683 646.279 518.232C644.657 516.781 642.631 516.056 640.199 516.056ZM675.398 543.768C671.387 543.768 668.08 542.787 665.478 540.824C662.875 538.861 661.382 536.259 660.998 533.016H667.845C668.187 534.467 668.998 535.725 670.278 536.792C671.558 537.816 673.243 538.328 675.333 538.328C677.382 538.328 678.875 537.901 679.814 537.048C680.752 536.195 681.222 535.213 681.222 534.104C681.222 532.483 680.56 531.395 679.238 530.84C677.958 530.243 676.166 529.709 673.862 529.24C672.07 528.856 670.278 528.344 668.486 527.704C666.736 527.064 665.264 526.168 664.07 525.016C662.918 523.821 662.342 522.221 662.342 520.216C662.342 517.443 663.408 515.139 665.542 513.304C667.675 511.427 670.662 510.488 674.502 510.488C678.043 510.488 680.902 511.341 683.078 513.048C685.296 514.755 686.598 517.165 686.982 520.28H680.454C680.24 518.915 679.6 517.848 678.534 517.08C677.51 516.312 676.123 515.928 674.374 515.928C672.667 515.928 671.344 516.291 670.406 517.016C669.467 517.699 668.998 518.595 668.998 519.704C668.998 520.813 669.638 521.688 670.918 522.328C672.24 522.968 673.968 523.544 676.102 524.056C678.235 524.525 680.198 525.08 681.99 525.72C683.824 526.317 685.296 527.213 686.406 528.408C687.515 529.603 688.07 531.352 688.07 533.656C688.112 536.557 686.982 538.968 684.678 540.888C682.416 542.808 679.323 543.768 675.398 543.768ZM699.316 505.24C698.036 505.24 696.969 504.856 696.116 504.088C695.305 503.277 694.9 502.275 694.9 501.08C694.9 499.885 695.305 498.904 696.116 498.136C696.969 497.325 698.036 496.92 699.316 496.92C700.596 496.92 701.641 497.325 702.452 498.136C703.305 498.904 703.732 499.885 703.732 501.08C703.732 502.275 703.305 503.277 702.452 504.088C701.641 504.856 700.596 505.24 699.316 505.24ZM695.924 543V511.256H702.708V543H695.924ZM724.655 533.272C722.991 533.272 721.455 533.08 720.047 532.696L717.295 535.384C717.764 535.683 718.34 535.939 719.023 536.152C719.706 536.365 720.666 536.557 721.903 536.728C723.14 536.899 724.826 537.069 726.959 537.24C731.183 537.624 734.234 538.648 736.111 540.312C737.988 541.933 738.927 544.109 738.927 546.84C738.927 548.717 738.415 550.488 737.391 552.152C736.41 553.859 734.852 555.224 732.719 556.248C730.628 557.315 727.94 557.848 724.655 557.848C720.218 557.848 716.612 556.995 713.839 555.288C711.108 553.624 709.743 551.085 709.743 547.672C709.743 546.349 710.084 545.027 710.767 543.704C711.492 542.424 712.623 541.208 714.159 540.056C713.263 539.672 712.474 539.267 711.791 538.84C711.151 538.371 710.575 537.901 710.063 537.432V535.896L715.567 530.264C713.092 528.131 711.855 525.336 711.855 521.88C711.855 519.789 712.346 517.891 713.327 516.184C714.351 514.435 715.823 513.048 717.743 512.024C719.663 511 721.967 510.488 724.655 510.488C726.447 510.488 728.111 510.744 729.647 511.256H741.487V515.736L735.855 516.056C736.879 517.805 737.391 519.747 737.391 521.88C737.391 524.013 736.879 525.933 735.855 527.64C734.874 529.347 733.423 530.712 731.503 531.736C729.626 532.76 727.343 533.272 724.655 533.272ZM724.655 527.96C726.618 527.96 728.196 527.448 729.391 526.424C730.628 525.357 731.247 523.864 731.247 521.944C731.247 519.981 730.628 518.488 729.391 517.464C728.196 516.44 726.618 515.928 724.655 515.928C722.65 515.928 721.028 516.44 719.791 517.464C718.596 518.488 717.999 519.981 717.999 521.944C717.999 523.864 718.596 525.357 719.791 526.424C721.028 527.448 722.65 527.96 724.655 527.96ZM716.143 547.032C716.143 548.867 716.954 550.232 718.575 551.128C720.196 552.067 722.223 552.536 724.655 552.536C727.002 552.536 728.9 552.024 730.351 551C731.802 550.019 732.527 548.696 732.527 547.032C732.527 545.795 732.036 544.728 731.055 543.832C730.074 542.979 728.218 542.445 725.487 542.232C723.439 542.104 721.626 541.912 720.047 541.656C718.554 542.467 717.53 543.341 716.975 544.28C716.42 545.219 716.143 546.136 716.143 547.032ZM747.538 543V511.256H753.554L754.066 516.824C755.047 514.861 756.477 513.325 758.354 512.216C760.274 511.064 762.471 510.488 764.946 510.488C768.786 510.488 771.794 511.683 773.97 514.072C776.189 516.461 777.298 520.024 777.298 524.76V543H770.578V525.464C770.578 519.32 768.061 516.248 763.026 516.248C760.509 516.248 758.418 517.144 756.754 518.936C755.133 520.728 754.322 523.288 754.322 526.616V543H747.538ZM781.512 550.552L785.224 535.448H791.944L786.056 550.552H781.512ZM831.5 543.768C828.3 543.768 825.398 543.149 822.796 541.912C820.236 540.632 818.188 538.691 816.652 536.088C815.158 533.485 814.411 530.179 814.411 526.168V498.2H821.196V526.232C821.196 530.157 822.134 533.037 824.012 534.872C825.889 536.707 828.428 537.624 831.628 537.624C834.785 537.624 837.302 536.707 839.18 534.872C841.057 533.037 841.996 530.157 841.996 526.232V498.2H848.78V526.168C848.78 530.179 847.99 533.485 846.412 536.088C844.876 538.691 842.785 540.632 840.14 541.912C837.537 543.149 834.657 543.768 831.5 543.768ZM855.242 543L869.066 520.344L855.114 498.2H862.858L873.418 514.968L883.274 498.2H890.89L877.002 520.664L891.082 543H883.338L872.714 526.104L862.858 543H855.242ZM913.982 543V498.2H929.406C932.947 498.2 935.848 498.797 938.11 499.992C940.414 501.187 942.12 502.808 943.229 504.856C944.339 506.861 944.894 509.101 944.894 511.576C944.894 514.349 944.147 516.867 942.654 519.128C941.203 521.389 938.92 523.011 935.806 523.992L945.342 543H937.47L928.766 524.952H920.766V543H913.982ZM920.766 519.832H929.022C932.094 519.832 934.334 519.085 935.742 517.592C937.192 516.099 937.918 514.157 937.918 511.768C937.918 509.379 937.214 507.48 935.806 506.072C934.398 504.621 932.115 503.896 928.958 503.896H920.766V519.832ZM965.574 543.768C962.459 543.768 959.686 543.085 957.254 541.72C954.864 540.312 952.987 538.371 951.622 535.896C950.256 533.421 949.574 530.541 949.574 527.256C949.574 523.928 950.235 521.005 951.558 518.488C952.923 515.971 954.8 514.008 957.19 512.6C959.622 511.192 962.438 510.488 965.638 510.488C968.752 510.488 971.462 511.192 973.766 512.6C976.07 513.965 977.862 515.8 979.142 518.104C980.422 520.408 981.062 522.947 981.062 525.72C981.062 526.147 981.04 526.616 980.998 527.128C980.998 527.597 980.976 528.131 980.934 528.728H956.23C956.443 531.8 957.446 534.147 959.238 535.768C961.072 537.347 963.184 538.136 965.574 538.136C967.494 538.136 969.094 537.709 970.374 536.856C971.696 535.96 972.678 534.765 973.318 533.272H980.102C979.248 536.259 977.542 538.755 974.982 540.76C972.464 542.765 969.328 543.768 965.574 543.768ZM965.574 516.056C963.312 516.056 961.307 516.739 959.558 518.104C957.808 519.427 956.742 521.432 956.358 524.12H974.278C974.15 521.645 973.275 519.683 971.654 518.232C970.032 516.781 968.006 516.056 965.574 516.056ZM1000.77 543.768C996.762 543.768 993.455 542.787 990.853 540.824C988.25 538.861 986.757 536.259 986.373 533.016H993.22C993.562 534.467 994.373 535.725 995.653 536.792C996.933 537.816 998.618 538.328 1000.71 538.328C1002.76 538.328 1004.25 537.901 1005.19 537.048C1006.13 536.195 1006.6 535.213 1006.6 534.104C1006.6 532.483 1005.94 531.395 1004.61 530.84C1003.33 530.243 1001.54 529.709 999.237 529.24C997.445 528.856 995.653 528.344 993.861 527.704C992.111 527.064 990.639 526.168 989.445 525.016C988.293 523.821 987.717 522.221 987.717 520.216C987.717 517.443 988.783 515.139 990.917 513.304C993.05 511.427 996.037 510.488 999.877 510.488C1003.42 510.488 1006.28 511.341 1008.45 513.048C1010.67 514.755 1011.97 517.165 1012.36 520.28H1005.83C1005.62 518.915 1004.98 517.848 1003.91 517.08C1002.88 516.312 1001.5 515.928 999.749 515.928C998.042 515.928 996.719 516.291 995.781 517.016C994.842 517.699 994.373 518.595 994.373 519.704C994.373 520.813 995.013 521.688 996.293 522.328C997.615 522.968 999.343 523.544 1001.48 524.056C1003.61 524.525 1005.57 525.08 1007.36 525.72C1009.2 526.317 1010.67 527.213 1011.78 528.408C1012.89 529.603 1013.44 531.352 1013.44 533.656C1013.49 536.557 1012.36 538.968 1010.05 540.888C1007.79 542.808 1004.7 543.768 1000.77 543.768ZM1035.7 543.768C1032.58 543.768 1029.81 543.085 1027.38 541.72C1024.99 540.312 1023.11 538.371 1021.75 535.896C1020.38 533.421 1019.7 530.541 1019.7 527.256C1019.7 523.928 1020.36 521.005 1021.68 518.488C1023.05 515.971 1024.93 514.008 1027.31 512.6C1029.75 511.192 1032.56 510.488 1035.76 510.488C1038.88 510.488 1041.59 511.192 1043.89 512.6C1046.19 513.965 1047.99 515.8 1049.27 518.104C1050.55 520.408 1051.19 522.947 1051.19 525.72C1051.19 526.147 1051.17 526.616 1051.12 527.128C1051.12 527.597 1051.1 528.131 1051.06 528.728H1026.35C1026.57 531.8 1027.57 534.147 1029.36 535.768C1031.2 537.347 1033.31 538.136 1035.7 538.136C1037.62 538.136 1039.22 537.709 1040.5 536.856C1041.82 535.96 1042.8 534.765 1043.44 533.272H1050.23C1049.37 536.259 1047.67 538.755 1045.11 540.76C1042.59 542.765 1039.45 543.768 1035.7 543.768ZM1035.7 516.056C1033.44 516.056 1031.43 516.739 1029.68 518.104C1027.93 519.427 1026.87 521.432 1026.48 524.12H1044.4C1044.27 521.645 1043.4 519.683 1041.78 518.232C1040.16 516.781 1038.13 516.056 1035.7 516.056ZM1068.98 543.768C1066.29 543.768 1064.07 543.32 1062.32 542.424C1060.57 541.528 1059.27 540.355 1058.42 538.904C1057.56 537.411 1057.14 535.789 1057.14 534.04C1057.14 530.968 1058.33 528.536 1060.72 526.744C1063.11 524.952 1066.52 524.056 1070.96 524.056H1079.28V523.48C1079.28 521.005 1078.6 519.149 1077.23 517.912C1075.91 516.675 1074.18 516.056 1072.05 516.056C1070.17 516.056 1068.53 516.525 1067.12 517.464C1065.76 518.36 1064.92 519.704 1064.63 521.496H1057.84C1058.05 519.192 1058.82 517.229 1060.15 515.608C1061.51 513.944 1063.22 512.685 1065.27 511.832C1067.36 510.936 1069.64 510.488 1072.11 510.488C1076.55 510.488 1079.99 511.661 1082.42 514.008C1084.85 516.312 1086.07 519.469 1086.07 523.48V543H1080.18L1079.6 537.56C1078.71 539.309 1077.4 540.781 1075.7 541.976C1073.99 543.171 1071.75 543.768 1068.98 543.768ZM1070.32 538.264C1072.16 538.264 1073.69 537.837 1074.93 536.984C1076.21 536.088 1077.19 534.915 1077.87 533.464C1078.6 532.013 1079.05 530.413 1079.22 528.664H1071.67C1068.98 528.664 1067.06 529.133 1065.91 530.072C1064.8 531.011 1064.24 532.184 1064.24 533.592C1064.24 535.043 1064.77 536.195 1065.84 537.048C1066.95 537.859 1068.44 538.264 1070.32 538.264ZM1093.98 543V511.256H1100.06L1100.63 517.272C1101.74 515.181 1103.28 513.539 1105.24 512.344C1107.24 511.107 1109.66 510.488 1112.47 510.488V517.592H1110.62C1108.74 517.592 1107.05 517.912 1105.56 518.552C1104.11 519.149 1102.94 520.195 1102.04 521.688C1101.19 523.139 1100.76 525.165 1100.76 527.768V543H1093.98ZM1132.45 543.768C1129.34 543.768 1126.54 543.064 1124.07 541.656C1121.64 540.248 1119.72 538.307 1118.31 535.832C1116.94 533.315 1116.26 530.413 1116.26 527.128C1116.26 523.843 1116.94 520.963 1118.31 518.488C1119.72 515.971 1121.64 514.008 1124.07 512.6C1126.54 511.192 1129.34 510.488 1132.45 510.488C1136.38 510.488 1139.66 511.512 1142.31 513.56C1145 515.608 1146.73 518.381 1147.49 521.88H1140.39C1139.96 520.131 1139.02 518.765 1137.57 517.784C1136.12 516.803 1134.42 516.312 1132.45 516.312C1130.79 516.312 1129.25 516.739 1127.85 517.592C1126.44 518.403 1125.31 519.619 1124.45 521.24C1123.6 522.819 1123.17 524.781 1123.17 527.128C1123.17 529.475 1123.6 531.459 1124.45 533.08C1125.31 534.659 1126.44 535.875 1127.85 536.728C1129.25 537.581 1130.79 538.008 1132.45 538.008C1134.42 538.008 1136.12 537.517 1137.57 536.536C1139.02 535.555 1139.96 534.168 1140.39 532.376H1147.49C1146.77 535.789 1145.06 538.541 1142.37 540.632C1139.69 542.723 1136.38 543.768 1132.45 543.768ZM1154.85 543V496.92H1161.63V516.376C1162.7 514.541 1164.17 513.112 1166.05 512.088C1167.97 511.021 1170.08 510.488 1172.39 510.488C1176.18 510.488 1179.17 511.683 1181.35 514.072C1183.52 516.461 1184.61 520.024 1184.61 524.76V543H1177.89V525.464C1177.89 519.32 1175.44 516.248 1170.53 516.248C1167.97 516.248 1165.84 517.144 1164.13 518.936C1162.47 520.728 1161.63 523.288 1161.63 526.616V543H1154.85Z" fill="black"/>
<path d="M152 920C99.2027 920 72.804 920 56.402 903.598C40 887.196 40 860.797 40 808L40 152C40 99.2027 40 72.804 56.402 56.402C72.804 40 99.2027 40 152 40L174 40L174 920L152 920Z" fill="#25B102"/>
<path d="M132.864 650.424C132.864 655.416 131.784 659.736 129.624 663.384C127.416 666.984 124.368 669.768 120.48 671.736C116.544 673.704 112.008 674.688 106.872 674.688C101.688 674.688 97.152 673.704 93.264 671.736C89.328 669.768 86.256 666.984 84.048 663.384C81.84 659.736 80.736 655.416 80.736 650.424C80.736 644.52 82.176 639.696 85.056 635.952C87.936 632.208 91.968 629.832 97.152 628.824L97.152 637.32C94.224 637.992 91.896 639.432 90.168 641.64C88.44 643.848 87.576 646.8 87.576 650.496C87.576 655.536 89.304 659.52 92.76 662.448C96.168 665.376 100.872 666.84 106.872 666.84C112.824 666.84 117.504 665.376 120.912 662.448C124.32 659.52 126.024 655.536 126.024 650.496C126.024 646.8 125.208 643.848 123.576 641.64C121.944 639.432 119.712 637.992 116.88 637.32L116.88 628.824C121.872 629.832 125.784 632.208 128.616 635.952C131.448 639.696 132.864 644.52 132.864 650.424ZM132.864 594.299C132.864 599.291 131.76 603.659 129.552 607.403C127.344 611.147 124.296 614.075 120.408 616.187C116.472 618.299 111.936 619.355 106.8 619.355C101.664 619.355 97.152 618.299 93.264 616.187C89.328 614.075 86.256 611.147 84.048 607.403C81.84 603.659 80.736 599.291 80.736 594.299C80.736 589.307 81.84 584.939 84.048 581.195C86.256 577.451 89.328 574.547 93.264 572.483C97.152 570.371 101.664 569.315 106.8 569.315C111.936 569.315 116.472 570.371 120.408 572.483C124.296 574.547 127.344 577.451 129.552 581.195C131.76 584.939 132.864 589.307 132.864 594.299ZM126.024 594.299C126.024 590.843 125.256 587.843 123.72 585.299C122.184 582.707 119.976 580.691 117.096 579.251C114.216 577.811 110.784 577.091 106.8 577.091C102.816 577.091 99.384 577.811 96.504 579.251C93.624 580.691 91.416 582.707 89.88 585.299C88.344 587.843 87.576 590.843 87.576 594.299C87.576 597.755 88.344 600.779 89.88 603.371C91.416 605.963 93.624 607.979 96.504 609.419C99.384 610.811 102.816 611.507 106.8 611.507C110.784 611.507 114.216 610.811 117.096 609.419C119.976 607.979 122.184 605.963 123.72 603.371C125.256 600.779 126.024 597.755 126.024 594.299ZM132 557.933L81.6 557.933L81.6 548.933L115.152 531.869L81.6 514.877L81.6 505.877L132 505.877L132 513.509L94.776 513.509L124.8 528.917L124.8 534.821L94.848 550.301L132 550.301L132 557.933ZM132 492.756L81.6 492.756L81.6 475.116C81.6 471.18 82.272 467.916 83.616 465.324C84.912 462.732 86.712 460.812 89.016 459.564C91.272 458.268 93.84 457.62 96.72 457.62C99.456 457.62 101.976 458.244 104.28 459.492C106.536 460.692 108.336 462.588 109.68 465.18C111.024 467.772 111.696 471.084 111.696 475.116L111.696 485.124L132 485.124L132 492.756ZM105.432 485.124L105.432 475.476C105.432 471.876 104.664 469.308 103.128 467.772C101.544 466.188 99.408 465.396 96.72 465.396C93.936 465.396 91.776 466.188 90.24 467.772C88.656 469.308 87.864 471.876 87.864 475.476L87.864 485.124L105.432 485.124ZM132 447.196L81.6 447.196L81.6 439.564L125.952 439.564L125.952 416.668L132 416.668L132 447.196ZM132 405.574L81.6 405.574L81.6 373.534L87.792 373.534L87.792 397.942L103.488 397.942L103.488 375.694L109.536 375.694L109.536 397.942L125.808 397.942L125.808 373.534L132 373.534L132 405.574ZM132 349.753L87.792 349.753L87.792 364.657L81.6 364.657L81.6 327.289L87.792 327.289L87.792 342.121L132 342.121L132 349.753ZM132 317.267L81.6 317.267L81.6 285.227L87.792 285.227L87.792 309.635L103.488 309.635L103.488 287.387L109.536 287.387L109.536 309.635L125.808 309.635L125.808 285.227L132 285.227L132 317.267Z" fill="white"/>
</g>
<defs>
<filter id="filter0_d_302_322" x="12" y="32" width="1576" height="936" filterUnits="userSpaceOnUse" color-interpolation-filters="sRGB">
<feFlood flood-opacity="0" result="BackgroundImageFix"/>
<feColorMatrix in="SourceAlpha" type="matrix" values="0 0 0 0 0 0 0 0 0 0 0 0 0 0 0 0 0 0 127 0" result="hardAlpha"/>
<feOffset dy="20"/>
<feGaussianBlur stdDeviation="14"/>
<feComposite in2="hardAlpha" operator="out"/>
<feColorMatrix type="matrix" values="0 0 0 0 0 0 0 0 0 0 0 0 0 0 0 0 0 0 0.25 0"/>
<feBlend mode="normal" in2="BackgroundImageFix" result="effect1_dropShadow_302_322"/>
<feBlend mode="normal" in="SourceGraphic" in2="effect1_dropShadow_302_322" result="shape"/>
</filter>
<clipPath id="clip0_302_322">
<rect width="1600" height="960" fill="white"/>
</clipPath>
<clipPath id="clip1_302_322">
<rect width="379.286" height="120" fill="white" transform="translate(238 133)"/>
</clipPath>
</defs>
</svg>
