<?xml version="1.0"?>
<svg xmlns="http://www.w3.org/2000/svg" viewBox="0 0 512 512" width="512" height="512"><g id="Outline"><rect x="216" y="440" width="16" height="16"/><path d="M232,140a12,12,0,1,0-12,12A12.013,12.013,0,0,0,232,140Z"/><path d="M292,152a12,12,0,1,0-12-12A12.013,12.013,0,0,0,292,152Z"/><path d="M277.294,187.963A68.335,68.335,0,0,1,254.111,192H240v16h14.111a84.286,84.286,0,0,0,28.6-4.98Z"/><path d="M440.773,323.413a94.194,94.194,0,0,0,5.049-93.938c-8.828-17.611-23.22-32.924-41.62-44.283a8,8,0,0,0-8.4,0c-18.4,11.359-32.792,26.672-41.617,44.279A94.006,94.006,0,0,0,344,272q0,3.484.264,6.973L296,266.234V237.277a80.016,80.016,0,0,0,39.315-58.815,24.118,24.118,0,0,0,2.609-2.525A31.98,31.98,0,0,0,352,116.312v-7.054a47.995,47.995,0,1,0-46.091-82.622A87.456,87.456,0,0,0,264,16H248a88.1,88.1,0,0,0-88,88v12.305a31.986,31.986,0,0,0,14.076,59.632,24.118,24.118,0,0,0,2.609,2.525A80.016,80.016,0,0,0,216,237.277v28.957l-64,16.234V196a28,28,0,0,0-56,0v92H81.6A17.621,17.621,0,0,0,64,305.6V456a40,40,0,0,0,79.96,1.64l13.954-34.884A69.552,69.552,0,0,0,168,442.708V496h16V440a8,8,0,0,0-1.755-5,54.242,54.242,0,0,1-9.293-49.839l2.476-6.19-14.651-6.41a62.527,62.527,0,0,0-2.814,6.991l-19.226,48.064-14.25-52.237a23.819,23.819,0,0,0,5.4-11.985l1.778-12.445A27.812,27.812,0,0,0,152,324V298.858l27.568-6.124L161.753,315a8,8,0,0,0,1.447,11.4l24.621,18.466-9.478,9.477a8,8,0,0,0,0,11.314L248,435.313V496h16V435.313l69.657-69.656a8,8,0,0,0,0-11.314l-9.478-9.477L348.8,326.4a8,8,0,0,0,1.447-11.4l-17.814-22.268,14.725,3.272c4.73,17.847,14.6,34.172,28.851,47.654,0,.113-.009.226-.009.34v6.863c0,1.131,6.118,44.531,6.118,44.531a23.726,23.726,0,0,0,3.618,9.585L374.6,430.959l-20.563-51.407a62.527,62.527,0,0,0-2.814-6.991l-14.651,6.41,2.476,6.19A54.242,54.242,0,0,1,329.755,435,8,8,0,0,0,328,440v56h16V442.708a69.552,69.552,0,0,0,10.086-19.952L368.04,457.64A40,40,0,0,0,448,456V337.6A17.573,17.573,0,0,0,440.773,323.413ZM136,248H112V221.293a27.951,27.951,0,0,0,24,0Zm-12-64a12,12,0,1,1-12,12A12.013,12.013,0,0,1,124,184ZM80,305.6a1.6,1.6,0,0,1,1.6-1.6H112a8.009,8.009,0,0,1,8,8v6.863a8.062,8.062,0,0,1-.08,1.131l-5.877,41.137a8.04,8.04,0,0,1-7.92,6.869H81.6a1.6,1.6,0,0,1-1.6-1.6V305.6ZM128,456a24,24,0,0,1-48,0V383.919c.528.048,1.06.081,1.6.081h24.523a23.712,23.712,0,0,0,4.034-.358l16.022,58.734A51.969,51.969,0,0,1,128,456Zm8-144a24.027,24.027,0,0,0-24-24V264h24Zm224.094-43.669a77.335,77.335,0,0,1,4.443-22.456L392,267.845v27.074Zm75.369-22.456a77.328,77.328,0,0,1,4.443,22.456L408,294.919V267.845ZM408,315.747l29.609-24.674A82.2,82.2,0,0,1,423.712,320H408Zm-8-114.213a96.059,96.059,0,0,1,28.411,29.492L408,247.355V224H392v23.355l-20.411-16.329A96.047,96.047,0,0,1,400,201.534ZM192,168a8.009,8.009,0,0,1-8-8V128a8.009,8.009,0,0,1,8-8H320a8.009,8.009,0,0,1,8,8v32a8.009,8.009,0,0,1-8,8H288a6.935,6.935,0,0,1-5.781-3.094l-7.125-10.688a22.949,22.949,0,0,0-38.188,0l-7.125,10.687A6.935,6.935,0,0,1,224,168Zm65.415-64A244.723,244.723,0,0,0,298.46,78.758a106.828,106.828,0,0,0,8.8,25.242Zm89.9,51.307a16.2,16.2,0,0,1-3.32,2.532V130.162a15.981,15.981,0,0,1,3.32,25.145ZM336,32a32,32,0,0,1,15.2,60.159A87.979,87.979,0,0,0,320.074,36.23,31.722,31.722,0,0,1,336,32Zm-88,0h16a72.081,72.081,0,0,1,72,72v6.131a23.98,23.98,0,0,0-10-5.372,91.169,91.169,0,0,1-12.688-33.531l-1.42-8.54a8,8,0,0,0-13.1-4.762A228.169,228.169,0,0,1,212.729,104H192a23.9,23.9,0,0,0-16,6.131V104A72.081,72.081,0,0,1,248,32ZM160,144a16,16,0,0,1,8-13.835v27.676A15.908,15.908,0,0,1,160,144Zm34.035,40H224a22.9,22.9,0,0,0,19.094-10.219l7.125-10.687a6.948,6.948,0,0,1,11.562,0l7.125,10.688A22.9,22.9,0,0,0,288,184h29.965a64,64,0,0,1-123.93,0Zm32.5,95.589A8,8,0,0,0,232,272V244.309a79.873,79.873,0,0,0,48,0V272a8,8,0,0,0,5.47,7.589l16.17,5.39L282.843,336H229.157l-18.8-51.021ZM256,408.859,235.052,352h41.9ZM195.313,360l10.344-10.343A8,8,0,0,0,204.8,337.6l-25.4-19.048,17.99-22.487L235.9,400.588ZM307.2,337.6a8,8,0,0,0-.857,12.057L316.687,360,276.1,400.588l38.508-104.523,17.99,22.487Zm55.192-46.526L392,315.747v5.629a24.054,24.054,0,0,0-9.436,6.158A84.1,84.1,0,0,1,362.392,291.074ZM408,480a23.992,23.992,0,0,1-24-24,30.771,30.771,0,0,1,2.5-12.2l12.378-28.876a23.686,23.686,0,0,0,7,1.074H430.4c.54,0,1.072-.033,1.6-.081V456A24.027,24.027,0,0,1,408,480Zm24-81.6a1.6,1.6,0,0,1-1.6,1.6H405.877a8.04,8.04,0,0,1-7.92-6.869L392.081,352a7.963,7.963,0,0,1-.081-1.133V344a8.009,8.009,0,0,1,8-8h30.4a1.6,1.6,0,0,1,1.6,1.6v60.8Z"/></g></svg>
