<?xml version="1.0"?>
<svg xmlns="http://www.w3.org/2000/svg" viewBox="0 0 512 512" width="512" height="512"><g id="Outline"><path d="M495.938,423.01l-12.4-99.372a48.149,48.149,0,0,0-38.214-41.163l-65.392-13.033L360,252.325V231.966A79.774,79.774,0,0,0,391.6,176h.4a32,32,0,0,0,0-64V64.984A33.757,33.757,0,0,0,356.041,31.3,36.7,36.7,0,0,0,326.111,16H280a48.054,48.054,0,0,0-48,48c0,.093.011.183.014.275-.01.267-.014.507-.014.685V112a32,32,0,1,0,0,64h.4a79.766,79.766,0,0,0,31.6,55.97v20.358l-19.933,17.119-67.156,13.431a48.189,48.189,0,0,0-18.622,8.054l1.6-9.614a8,8,0,0,0-.424-4.187l-35.032-91.082a16,16,0,1,0-20.839,3.543L88.533,408H87.467L72.4,189.589a16,16,0,1,0-20.839-3.543L16.533,277.128a8,8,0,0,0-.424,4.187l16,96a8,8,0,0,0,7.014,6.637A8.169,8.169,0,0,0,40,384a8,8,0,0,0,7.411-5l18.812-46.442L71.429,408H64a24.027,24.027,0,0,0-24,24v9.013A32.057,32.057,0,0,0,16,472v16a8,8,0,0,0,8,8H456a40.045,40.045,0,0,0,40-40V424A7.986,7.986,0,0,0,495.938,423.01ZM43.23,346.718,32.25,280.836l25.786-67.044,5.679,82.352Zm333.009-.778,7.062,28.25-25.228,32.836-1.722-.568-2.534-11.518a22.786,22.786,0,0,0-3.787-8.434l28.2-89.13,18.238,34.036-14.995,5A8,8,0,0,0,376.239,345.94ZM376,480H342.624A23.889,23.889,0,0,0,344,472V424a23.846,23.846,0,0,0-.534-4.943L376,429.785ZM242.53,336.41l-15-5,18.238-34.036,28.2,89.13a22.8,22.8,0,0,0-3.788,8.436l-2.473,11.388-1.8.6L240.7,374.187l7.061-28.247A8,8,0,0,0,242.53,336.41ZM280,241.316a79.948,79.948,0,0,0,64,0V253.1l-32,38.4-32-38.4ZM312,382.4a25.544,25.544,0,0,0-8-4.755V325.322l8-9.16,8,9.16v52.319A25.544,25.544,0,0,0,312,382.4Zm23.906,17.833A15.687,15.687,0,0,0,332.88,400H320.012c0-.108-.012-.2-.012-.32,0-4.235,4.127-7.68,9.2-7.68,4.406,0,8.184,2.666,8.987,6.358l.519,2.36A19.554,19.554,0,0,0,335.906,400.229Zm.356-23.248c-.088-.024-.174-.054-.262-.078V343.577l7.954,9.09ZM288,376.9c-.088.024-.174.054-.262.078l-7.692-24.314,7.954-9.09Zm-2.183,21.436c.8-3.673,4.577-6.339,8.983-6.339,5.073,0,9.2,3.445,9.2,7.68,0,.119-.009.212-.012.32H288a8.027,8.027,0,0,0-2.53.41l-.11.037Zm63.747-63.558-27.045-30.908,30.429-36.514,14.116,12.123ZM408,144a16.019,16.019,0,0,1-16,16V128A16.019,16.019,0,0,1,408,144ZM376,64.984V94.135a315.751,315.751,0,0,1-16-31.768V47.307a17.78,17.78,0,0,1,16,17.677ZM280,32h46.111A20.818,20.818,0,0,1,344,42.048V56H249.012A32.058,32.058,0,0,1,280,32ZM248,72h11.612C256.7,78.117,252.689,86.086,248,94.124Zm-32,72a16.019,16.019,0,0,1,16-16v32A16.019,16.019,0,0,1,216,144Zm32,24V122.83c13.471-17.051,24.708-40.666,29.248-50.83h69.5c4.537,10.166,15.768,33.778,29.25,50.832V168a64,64,0,0,1-128,0Zm23.052,99.359,30.429,36.514-27.045,30.908-17.5-55.3Zm-91,31.205,52.569-10.513-23.669,44.171a8,8,0,0,0,4.521,11.368l16.972,5.657-6.2,24.813a8,8,0,0,0,1.422,6.82l24.178,31.407L238.7,416H216V376H200v40H152v16h48v48H160v-8a32.057,32.057,0,0,0-24-30.987V432a23.98,23.98,0,0,0-.59-5.271l19.5-102.721A31.718,31.718,0,0,1,180.049,298.564ZM132.77,346.718l-20.485-50.574,5.679-82.352,25.786,67.044Zm-23-14.156,18.538,45.766L122.242,410.3A23.853,23.853,0,0,0,112,408h-7.429ZM56,432a8.009,8.009,0,0,1,8-8h48a8.009,8.009,0,0,1,8,8v8H56Zm72,48H32v-8a16.019,16.019,0,0,1,16-16h80a16.019,16.019,0,0,1,16,16v8Zm88-48h16v48H216Zm32,48V429.767L289.3,416H320a7.928,7.928,0,0,1,3.9,1.03,9.567,9.567,0,0,1,2.5,2.166A8.061,8.061,0,0,1,328,424v48a8.009,8.009,0,0,1-8,8Zm144,0V432h16v48Zm88-24a24.027,24.027,0,0,1-24,24H424V432h40V416H424V376H408v40H385.286l-11.114-3.665,24.172-31.461a8,8,0,0,0,1.417-6.814l-6.2-24.813,16.972-5.657a8,8,0,0,0,4.521-11.368l-23.676-44.184,50.788,10.121a32.146,32.146,0,0,1,25.5,27.471L480,424.5Z"/><path d="M288,196.56h16.934a115.037,115.037,0,0,0,33.385-4.9l-4.638-15.312a99.1,99.1,0,0,1-28.747,4.216H288Z"/><path d="M276,144a12,12,0,1,0-12-12A12.013,12.013,0,0,0,276,144Z"/><path d="M348,144a12,12,0,1,0-12-12A12.013,12.013,0,0,0,348,144Z"/></g></svg>
